<svg version="1.1" id="Layer_1" xmlns="http://www.w3.org/2000/svg" xmlns:xlink="http://www.w3.org/1999/xlink" x="0px" y="0px"
	 width="100%" viewBox="0 0 1532 1764" enable-background="new 0 0 1532 1764" xml:space="preserve">
<path fill="#10065C" opacity="1.000000" stroke="none" 
	d="
M782.000000,1.000000 
	C788.021179,1.000000 794.042297,1.000000 800.713379,1.400862 
	C802.189026,1.867400 803.014282,1.984622 803.840454,1.991361 
	C845.747742,2.333227 887.655151,2.664685 929.562500,2.999405 
	C971.136536,3.331463 1012.710632,3.664743 1054.284668,3.999410 
	C1095.525391,4.331396 1136.766235,4.666825 1178.006958,4.998815 
	C1219.581055,5.333489 1261.154785,5.706802 1302.729248,5.979783 
	C1320.384399,6.095707 1338.041016,5.999131 1355.083740,5.999131 
	C1363.967407,23.524927 1372.312500,40.804340 1381.413818,57.675846 
	C1388.270020,70.385605 1395.518188,82.965050 1403.631104,94.895836 
	C1414.427246,110.772522 1426.387573,125.861877 1441.061768,138.454422 
	C1452.441040,148.219513 1463.762085,158.119553 1475.782837,167.053116 
	C1490.265015,177.816132 1505.491699,187.574829 1520.290771,197.918884 
	C1521.593262,198.829239 1522.859131,200.839386 1522.890259,202.364197 
	C1523.384033,226.604340 1523.704346,250.848251 1524.002075,275.092072 
	C1524.371582,305.168121 1524.704224,335.244690 1525.015503,365.321411 
	C1525.368286,399.396973 1525.666992,433.473053 1526.013306,467.548706 
	C1526.334229,499.128906 1526.697876,530.708618 1527.022705,562.288757 
	C1527.366455,595.696899 1527.801514,629.104614 1527.983154,662.513672 
	C1528.142578,691.841675 1527.927734,721.171631 1528.062744,750.499878 
	C1528.091919,756.853699 1528.907959,763.203918 1529.395508,770.031677 
	C1280.433960,770.702209 1032.275024,771.370544 783.995972,772.039246 
	C783.995972,769.670593 784.002014,768.012878 783.995178,766.355164 
	C783.653625,683.622498 783.297791,600.889893 782.971863,518.157166 
	C782.623657,429.758820 782.176636,341.360596 782.007690,252.961853 
	C781.847168,168.974884 781.990356,84.987312 782.000000,1.000000 
M834.360291,201.137253 
	C835.109985,201.799667 835.854065,202.468582 836.610168,203.123566 
	C851.576904,216.087601 851.599609,216.154510 870.417297,209.889877 
	C898.911865,200.403656 923.660156,184.301773 947.236389,166.152313 
	C951.428162,162.925385 955.700073,159.802460 960.283997,156.370178 
	C975.896118,175.917191 998.338806,175.977203 1019.828186,178.050751 
	C1019.582703,195.956833 1023.565857,205.723755 1035.096558,215.302246 
	C1045.539795,223.977386 1057.592163,229.447769 1070.855957,232.075775 
	C1078.520264,233.594345 1086.319092,234.428238 1094.004028,235.857208 
	C1095.096313,236.060318 1095.885864,237.891098 1096.815552,238.968613 
	C1095.702759,239.674286 1094.573486,241.005219 1093.480225,240.976242 
	C1088.996826,240.857346 1084.471069,240.638153 1080.056885,239.889954 
	C1059.148071,236.345947 1039.678711,229.759796 1025.349121,212.864395 
	C1023.881409,211.134003 1022.597595,209.247742 1021.854492,208.263260 
	C1010.900574,219.028397 1000.835388,228.920059 990.016724,239.552216 
	C996.687866,245.211349 1003.199036,251.430878 1010.419067,256.674408 
	C1018.513245,262.552704 1016.767212,262.663666 1023.668457,255.687271 
	C1031.683716,247.584717 1041.135498,244.526978 1052.252441,245.799438 
	C1068.224854,247.627670 1082.110229,254.529251 1095.183838,263.410706 
	C1095.729126,263.781097 1096.245239,264.231659 1096.673340,264.731720 
	C1104.485962,273.859314 1113.917969,273.753540 1121.458618,264.487061 
	C1122.180176,263.600250 1123.143799,262.859161 1124.112671,262.232422 
	C1135.622437,254.787140 1147.697266,248.523804 1161.152710,245.410416 
	C1172.799072,242.715622 1183.286011,244.949646 1192.148682,253.369705 
	C1194.079468,255.204117 1195.995483,257.121704 1198.200562,258.571686 
	C1199.323364,259.310059 1201.499878,259.795959 1202.473022,259.202881 
	C1212.024902,253.381882 1221.004028,246.824127 1227.421631,238.336807 
	C1217.215942,228.082108 1207.259399,218.077911 1197.002808,207.772049 
	C1178.079102,231.592392 1151.585693,239.332565 1122.065796,240.358826 
	C1121.634033,235.094650 1121.624023,234.934021 1125.922729,234.665939 
	C1139.835083,233.798355 1153.314697,231.074142 1165.952759,225.075073 
	C1186.055176,215.532791 1200.679199,202.120895 1198.298462,176.897873 
	C1220.975708,177.342026 1242.048340,173.468262 1257.986450,155.772491 
	C1260.318359,157.542297 1262.180420,158.926010 1264.011353,160.349564 
	C1281.908325,174.264511 1300.191650,187.705399 1320.768066,197.375580 
	C1333.188721,203.212906 1346.187866,207.931747 1359.216797,212.286499 
	C1362.611572,213.421173 1368.296021,212.692108 1370.865723,210.452103 
	C1382.499878,200.310349 1393.429932,189.356674 1404.508789,178.587662 
	C1405.790649,177.341629 1406.421387,175.425674 1407.606689,173.385422 
	C1405.557983,173.226257 1404.412231,173.127731 1403.265259,173.049530 
	C1379.945923,171.459915 1356.951782,167.942368 1334.598877,160.954498 
	C1304.285889,151.478180 1277.792725,136.605362 1260.535645,108.530128 
	C1256.091187,101.299377 1249.403442,96.207085 1241.688965,92.607384 
	C1218.934326,81.989578 1195.699219,80.979912 1172.418091,90.281723 
	C1156.667603,96.574738 1144.937256,107.153206 1141.460938,124.731194 
	C1140.824341,127.950615 1140.834961,131.298050 1140.531250,134.765152 
	C1134.565308,134.292206 1128.810913,133.836029 1122.771118,133.357224 
	C1122.771118,129.276871 1122.915649,125.632454 1122.722778,122.005981 
	C1122.582764,119.375343 1123.452148,118.007172 1125.850952,116.592842 
	C1137.558472,109.689850 1141.498657,98.791382 1139.914795,85.895790 
	C1138.405884,73.611107 1132.098267,64.384766 1120.110840,59.975372 
	C1104.672607,54.296574 1087.856445,60.840000 1080.937988,74.921982 
	C1074.141602,88.755562 1076.902100,108.730087 1092.308594,116.884552 
	C1093.886475,117.719673 1095.373047,120.041191 1095.602905,121.839127 
	C1096.100830,125.731834 1095.756348,129.732269 1095.756348,133.934128 
	C1089.493042,134.502594 1083.623657,135.035324 1077.452515,135.595428 
	C1077.234375,113.142166 1065.392456,99.348175 1046.163574,91.240044 
	C1030.255737,84.532249 1013.589844,83.277023 996.657593,86.435806 
	C978.637634,89.797523 964.198425,98.820366 953.875610,114.157158 
	C945.001770,127.341293 934.027527,138.298676 920.019226,146.062546 
	C897.818604,158.366913 874.170593,166.421280 849.054688,169.969009 
	C836.432068,171.751984 823.730896,172.978683 810.173828,174.560974 
	C817.183350,184.609634 825.335693,192.789719 834.360291,201.137253 
M1123.329956,274.798553 
	C1120.533691,277.371429 1117.203003,279.563782 1115.046265,282.592163 
	C1109.681763,290.124786 1113.429932,298.662354 1122.526855,300.084717 
	C1126.455811,300.699036 1130.477783,300.823914 1134.464478,300.945923 
	C1150.484741,301.436310 1166.156860,312.840363 1170.939941,328.194946 
	C1176.251709,345.246185 1169.783447,359.273895 1157.332642,370.225861 
	C1149.979126,376.694122 1141.031128,381.812775 1132.043823,385.857971 
	C1116.310913,392.939423 1099.921509,398.546417 1083.944214,405.104950 
	C1065.815186,412.546783 1048.536743,421.480652 1035.609131,436.841064 
	C1009.113708,468.322693 1018.569519,507.029694 1050.677612,532.844543 
	C1065.325195,525.001282 1079.418335,517.454895 1093.879639,509.711334 
	C1092.213379,508.326904 1090.500488,506.822266 1088.700195,505.430511 
	C1086.857910,504.006165 1084.879150,502.757538 1083.047852,501.320038 
	C1067.648560,489.231659 1067.838745,469.606781 1084.353516,459.120300 
	C1093.509888,453.306305 1103.878418,449.252106 1113.996460,445.130981 
	C1139.211426,434.860596 1164.875732,425.649689 1189.829224,414.794006 
	C1212.464600,404.946808 1229.757202,388.441162 1241.348145,366.513702 
	C1253.705444,343.136841 1252.021851,320.496063 1236.699463,298.857513 
	C1228.467896,287.232758 1217.124146,279.609680 1204.799438,273.041931 
	C1200.593140,270.800476 1196.197388,268.305939 1193.002441,264.886047 
	C1182.140869,253.259598 1169.430420,251.611877 1155.681152,257.777466 
	C1144.799683,262.657043 1134.479736,268.788574 1123.329956,274.798553 
M1043.832520,337.182922 
	C1044.073608,333.056030 1043.685059,328.771912 1044.668823,324.830383 
	C1048.264404,310.423920 1060.041016,302.177887 1076.807373,301.702209 
	C1083.294312,301.518158 1089.814209,301.571808 1096.254395,300.898010 
	C1103.972168,300.090515 1108.067627,293.983032 1105.525513,287.083160 
	C1104.424805,284.095703 1102.443359,280.951752 1099.968018,279.031342 
	C1085.922729,268.135101 1070.559204,259.561920 1053.095215,255.552750 
	C1046.012573,253.926788 1039.109863,254.556549 1032.798950,259.515198 
	C1024.872559,265.743195 1016.730957,271.879547 1008.007629,276.878204 
	C979.216431,293.376221 964.512573,325.842438 974.186951,355.799835 
	C984.205872,386.824493 1007.145508,406.126373 1035.853271,419.381866 
	C1037.112183,419.963196 1039.543091,419.443390 1040.727417,418.529053 
	C1053.355591,408.778992 1067.483521,401.855835 1082.182251,395.925812 
	C1085.812256,394.461395 1089.295654,392.633881 1093.356812,390.734558 
	C1090.941528,389.327332 1089.230713,388.310028 1087.500854,387.325928 
	C1076.446899,381.036987 1066.080200,373.852173 1057.680420,364.161163 
	C1051.081177,356.547455 1045.280884,348.483887 1043.832520,337.182922 
M1147.986572,465.667969 
	C1154.345459,476.723663 1153.161743,486.474396 1144.260986,496.224396 
	C1137.798096,503.303833 1129.431763,507.416748 1120.770996,510.932953 
	C1108.151367,516.056519 1095.349243,520.735352 1082.774414,525.963562 
	C1071.801636,530.525696 1061.594604,536.447693 1053.275146,545.164001 
	C1038.991333,560.128906 1035.444702,581.161682 1045.291992,597.476440 
	C1049.975830,605.236511 1056.168457,612.085876 1061.153320,618.656799 
	C1070.536255,611.147949 1079.220581,604.197998 1087.438721,597.621338 
	C1084.723877,594.005493 1081.161011,590.669250 1079.363037,586.560608 
	C1076.016113,578.912048 1078.807251,570.061829 1087.209106,564.977051 
	C1096.365601,559.435608 1106.377563,555.200439 1116.282349,551.026062 
	C1134.170654,543.487000 1152.546265,537.046936 1170.166016,528.946411 
	C1183.658691,522.743225 1194.439941,512.730713 1202.114380,499.669983 
	C1216.481323,475.219391 1210.551392,447.812225 1187.304321,431.473053 
	C1184.776123,429.696075 1182.573120,429.243713 1179.517822,430.423798 
	C1163.711914,436.528870 1147.803345,442.367859 1131.941528,448.328766 
	C1130.833374,448.745209 1129.813843,449.397980 1129.737793,449.436920 
	C1135.734985,454.682007 1141.661499,459.865295 1147.986572,465.667969 
M1133.621094,588.157715 
	C1129.033813,590.800964 1124.631592,593.862732 1119.816650,595.991211 
	C1112.235229,599.342773 1104.284912,601.853149 1096.657959,605.110901 
	C1087.556641,608.998352 1079.207153,614.121521 1072.966553,622.061401 
	C1064.285034,633.106812 1063.682251,645.941895 1071.206421,657.787842 
	C1081.593506,674.141235 1109.375732,686.160706 1129.695435,682.423462 
	C1128.076782,682.161804 1127.472778,682.103577 1126.888062,681.963928 
	C1115.745483,679.300537 1105.858887,674.527405 1099.197388,664.745178 
	C1088.532715,649.084595 1092.805176,633.404358 1110.046875,625.837585 
	C1117.780884,622.443359 1125.945923,620.045044 1133.832520,616.981750 
	C1147.073975,611.838745 1159.814697,605.741333 1169.929688,595.404419 
	C1184.657227,580.354126 1184.338379,561.313293 1169.773926,546.204529 
	C1166.470093,542.777161 1164.037109,542.619019 1160.057983,544.471802 
	C1152.540771,547.971985 1144.754150,550.891602 1137.096313,554.092712 
	C1134.901245,555.010254 1132.764038,556.065979 1130.309937,557.191467 
	C1131.655762,558.368591 1132.524048,559.135498 1133.400269,559.893127 
	C1144.099976,569.143555 1144.345581,577.836365 1133.621094,588.157715 
M981.765930,177.597443 
	C975.727234,174.184662 969.446045,171.126877 963.739075,167.228439 
	C960.210327,164.817902 958.183105,164.954773 954.856079,167.644775 
	C929.784424,187.916153 903.023682,205.332077 871.963684,215.225098 
	C868.178955,216.430603 864.497131,217.959030 860.098938,219.585007 
	C873.546082,226.996033 886.835815,232.518799 900.955872,235.815063 
	C903.505310,236.410217 906.795959,236.079727 909.145203,234.940765 
	C937.656189,221.118530 962.743835,202.548584 985.000488,179.660049 
	C984.003723,178.996445 983.203003,178.463379 981.765930,177.597443 
M1267.519287,169.993393 
	C1266.052490,168.899124 1264.415283,167.971237 1263.152954,166.677460 
	C1260.112915,163.561676 1257.655273,164.136597 1254.304932,166.662796 
	C1249.976929,169.926224 1244.994995,172.332993 1240.246216,175.023178 
	C1237.996460,176.297577 1235.634277,177.373413 1232.928955,178.738022 
	C1234.217163,180.188904 1235.009521,181.210907 1235.930542,182.099625 
	C1254.087036,199.619659 1273.771240,215.154495 1295.962769,227.269913 
	C1316.676025,238.578201 1309.809204,237.505203 1332.036377,230.525711 
	C1340.946167,227.727951 1349.310059,223.191223 1357.922363,219.446030 
	C1351.511353,216.324081 1345.402710,214.718597 1339.515747,212.519913 
	C1313.237549,202.705536 1289.942261,187.775024 1267.519287,169.993393 
M960.317444,241.786346 
	C967.822632,240.907883 976.084717,242.246704 982.210083,236.670242 
	C993.385986,226.495850 1004.207703,215.925003 1014.940063,205.280487 
	C1016.235718,203.995361 1016.733643,201.131317 1016.442078,199.171539 
	C1015.690857,194.121964 1014.289246,189.169144 1013.041077,183.712006 
	C1009.348145,183.306641 1004.953003,183.333374 1000.852112,182.248260 
	C995.432129,180.814102 991.564514,182.166672 987.499695,185.959167 
	C966.913635,205.166199 945.499512,223.307114 919.760742,235.508652 
	C918.294678,236.203629 917.052673,237.371094 915.706421,238.318665 
	C915.826721,238.766266 915.947021,239.213867 916.067322,239.661469 
	C930.497498,240.381149 944.927612,241.100830 960.317444,241.786346 
M1301.176025,236.206757 
	C1293.487061,231.949356 1285.535645,228.099930 1278.161499,223.353455 
	C1260.356445,211.893005 1243.987671,198.582016 1229.023315,183.566696 
	C1227.907593,182.447083 1226.359253,180.878952 1225.084473,180.943771 
	C1218.182861,181.294754 1211.303833,182.094421 1205.114746,182.674118 
	C1203.767822,188.530716 1202.461670,193.491638 1201.560791,198.525085 
	C1201.253052,200.244705 1201.279785,202.838608 1202.313110,203.858459 
	C1213.199585,214.602982 1224.236328,225.200882 1235.457886,235.595062 
	C1237.408081,237.401382 1240.301758,238.694473 1242.947754,239.163330 
	C1262.525146,242.632294 1282.044556,240.508057 1301.533569,238.037582 
	C1301.666748,238.020706 1301.688599,237.125900 1301.176025,236.206757 
M1108.080566,385.545898 
	C1111.970093,384.193298 1115.859497,382.840729 1120.246460,381.315186 
	C1120.246460,357.662262 1120.246460,334.061279 1120.246460,310.068756 
	C1112.755859,307.110992 1105.007080,306.935760 1097.986816,310.141846 
	C1097.986816,336.735626 1097.986816,362.564331 1097.986816,388.853546 
	C1101.691650,387.661591 1104.523926,386.750336 1108.080566,385.545898 
M1126.278564,667.918762 
	C1124.960205,669.008789 1123.641846,670.098816 1122.323608,671.188843 
	C1122.387939,671.816040 1122.452271,672.443176 1122.516724,673.070374 
	C1125.708374,673.653564 1129.213135,675.381104 1132.034180,674.609497 
	C1141.188354,672.105652 1149.116577,667.204712 1154.473633,659.064209 
	C1161.567871,648.283875 1157.258911,632.176758 1145.730713,626.419739 
	C1143.759888,625.435486 1140.976318,624.575317 1139.078247,625.202148 
	C1129.532227,628.354492 1120.155396,632.019287 1110.108521,635.729675 
	C1116.101074,639.140137 1121.469971,641.467834 1125.981689,644.916870 
	C1135.035400,651.837769 1135.109253,659.727905 1126.278564,667.918762 
M1099.270142,487.498322 
	C1099.270142,494.570129 1099.270142,501.641968 1099.270142,509.131653 
	C1105.462402,506.976013 1110.432983,505.071869 1115.516968,503.545715 
	C1118.250244,502.725189 1119.084473,501.334198 1118.999390,498.546448 
	C1118.821533,492.723389 1119.052124,486.888763 1119.066528,481.058746 
	C1119.089478,471.796356 1119.072754,462.533905 1119.072754,452.785950 
	C1112.296265,454.994934 1105.743164,457.131104 1099.255371,459.246002 
	C1099.255371,468.529053 1099.255371,477.513824 1099.270142,487.498322 
M1101.473389,699.465515 
	C1101.621948,705.763672 1101.666016,712.066528 1101.950562,718.358521 
	C1102.195068,723.764526 1104.401733,726.039490 1108.942139,726.176697 
	C1113.845215,726.324951 1115.894043,723.384888 1116.106201,719.094238 
	C1116.515137,710.821899 1116.665771,702.534119 1116.730469,694.251160 
	C1116.738403,693.240662 1115.724609,691.513184 1114.905884,691.324036 
	C1110.652344,690.341431 1106.308594,689.749878 1101.461182,688.931824 
	C1101.461182,692.569153 1101.461182,695.544434 1101.473389,699.465515 
M1114.506836,561.202332 
	C1110.690918,562.817932 1106.790283,564.266846 1103.105469,566.140198 
	C1101.830444,566.788391 1100.278931,568.464417 1100.239014,569.715027 
	C1099.981323,577.793030 1100.107178,585.883240 1100.107178,594.796570 
	C1106.317383,592.539001 1111.299561,590.846130 1116.158203,588.852173 
	C1117.027466,588.495422 1117.885254,586.900696 1117.900024,585.865479 
	C1118.008789,578.213257 1117.966309,570.556152 1117.750610,562.906738 
	C1117.732056,562.249084 1116.117188,561.636475 1114.506836,561.202332 
M1116.967041,650.924500 
	C1116.642944,646.194519 1110.350952,642.076172 1103.830078,642.325928 
	C1101.337402,653.040833 1106.892212,663.956299 1116.972900,667.702209 
	C1116.972900,662.346497 1116.972900,657.090576 1116.967041,650.924500 
z"/>
<path fill="#10065C" opacity="1.000000" stroke="none" 
	d="
M801.000000,1765.000000 
	C795.311951,1765.000000 789.623962,1765.000000 783.463623,1764.531372 
	C783.427612,1443.432983 783.863770,1122.803223 784.300171,802.000000 
	C1034.100586,802.000000 1283.550293,802.000000 1533.000000,802.000000 
	C1533.000000,834.354248 1533.000000,866.708435 1532.599121,899.712891 
	C1532.132324,902.189392 1532.024658,904.015381 1532.006592,905.842224 
	C1531.664795,940.415100 1531.387817,974.988770 1530.969360,1009.560669 
	C1530.833252,1020.813232 1530.478394,1032.068115 1529.956909,1043.309570 
	C1529.500488,1053.149902 1528.980103,1063.005859 1527.935303,1072.795898 
	C1526.190430,1089.145142 1524.765991,1105.586914 1521.803711,1121.732422 
	C1518.438232,1140.076050 1514.003174,1158.263184 1509.175537,1176.288818 
	C1503.134888,1198.843872 1493.281372,1219.996826 1482.939453,1240.835083 
	C1475.791504,1255.237427 1468.041626,1269.376221 1459.878662,1283.230957 
	C1448.865356,1301.923462 1437.911011,1320.720459 1425.640259,1338.585693 
	C1407.828735,1364.518066 1389.235229,1389.939087 1370.246094,1415.026367 
	C1359.614258,1429.072510 1347.963135,1442.425171 1335.960205,1455.336548 
	C1320.208130,1472.280884 1302.192139,1486.806641 1283.736084,1500.712036 
	C1266.066040,1514.025513 1248.456421,1527.446289 1230.341309,1540.136108 
	C1195.115234,1564.812256 1158.395386,1587.144653 1120.787964,1607.998657 
	C1098.863281,1620.156250 1077.012695,1632.478882 1054.725464,1643.943115 
	C1024.170044,1659.660645 993.264832,1674.701050 962.441589,1689.893921 
	C949.901184,1696.075195 937.207947,1701.949463 924.539307,1707.867188 
	C900.242554,1719.216797 875.938660,1730.551758 851.584351,1741.776978 
	C842.997498,1745.734741 834.196045,1749.226196 825.599426,1753.163818 
	C817.327820,1756.952393 809.194214,1761.042480 801.000000,1765.000000 
M1288.199829,1418.432861 
	C1281.176147,1406.651733 1271.086914,1398.870728 1257.550171,1396.460815 
	C1250.556152,1395.215698 1243.318115,1395.120239 1236.180176,1394.956421 
	C1225.909180,1394.720703 1215.628906,1394.896240 1204.987061,1394.896240 
	C1204.987061,1384.582886 1205.459351,1374.754639 1204.822144,1364.999023 
	C1204.392334,1358.420898 1207.316650,1354.997681 1212.110718,1351.173828 
	C1223.654785,1341.965698 1235.753174,1333.027344 1245.530884,1322.103271 
	C1288.839478,1273.716919 1300.790649,1216.089844 1288.999023,1153.938599 
	C1278.448730,1098.329590 1246.925293,1056.299683 1196.731079,1029.024414 
	C1195.540039,1028.377075 1194.141235,1028.112427 1191.546875,1027.229614 
	C1193.995117,1032.874756 1195.854248,1037.257935 1197.790283,1041.606934 
	C1203.482300,1054.393188 1205.450317,1067.696899 1203.515015,1081.578735 
	C1200.735718,1101.516357 1190.363525,1117.130737 1176.023315,1130.628418 
	C1165.535278,1140.500366 1165.658203,1140.627930 1171.840698,1153.296021 
	C1172.350708,1154.340942 1172.842896,1155.396851 1173.288940,1156.470337 
	C1185.028076,1184.724731 1185.110596,1212.519409 1169.255981,1239.321655 
	C1163.173828,1249.603882 1154.659912,1257.669189 1142.521851,1260.288086 
	C1138.160645,1261.229126 1136.863647,1262.903442 1136.930176,1267.131836 
	C1137.128906,1279.790527 1137.294067,1292.465210 1136.879517,1305.114136 
	C1136.433472,1318.730103 1129.559082,1326.321411 1116.053223,1327.144409 
	C1102.775879,1327.953491 1089.411865,1327.656494 1076.096436,1327.363770 
	C1071.348633,1327.259521 1070.152100,1328.714111 1070.207886,1333.278198 
	C1070.436279,1351.938110 1070.302856,1370.602539 1070.302734,1389.265259 
	C1070.302734,1391.027710 1070.302734,1392.790161 1070.302734,1394.896240 
	C1067.194580,1394.896240 1064.722046,1394.894775 1062.249390,1394.896240 
	C1005.928040,1394.930176 949.606445,1394.863770 893.285583,1395.049316 
	C871.423279,1395.121338 855.829590,1406.987183 851.263367,1428.290405 
	C848.708313,1440.210693 848.405273,1452.668213 847.757751,1464.918945 
	C847.447205,1470.793945 848.692505,1476.750977 849.301941,1483.424316 
	C997.994202,1483.424316 1146.024902,1483.424316 1294.292847,1483.424316 
	C1294.346680,1482.891968 1294.526489,1482.078979 1294.495972,1481.273682 
	C1293.895752,1465.469971 1293.539795,1449.649536 1292.494141,1433.874756 
	C1292.162109,1428.866333 1289.979004,1423.980469 1288.199829,1418.432861 
M951.508240,1118.998291 
	C958.405762,1123.753418 959.889587,1130.230713 959.526367,1138.447754 
	C958.783813,1155.247192 959.171204,1172.100708 959.301758,1188.930176 
	C959.318420,1191.080811 959.990112,1193.757935 961.367493,1195.274536 
	C967.409485,1201.927124 973.728516,1208.339600 980.176331,1214.603149 
	C981.560425,1215.947632 983.883118,1216.972168 985.798218,1217.014160 
	C995.122131,1217.218750 1004.455444,1217.110596 1013.783447,1216.973999 
	C1021.030273,1216.867798 1027.478027,1214.718506 1032.669312,1209.319458 
	C1036.709229,1205.117554 1040.854980,1201.002197 1045.165894,1197.081543 
	C1048.130737,1194.385132 1049.116943,1191.324341 1049.075684,1187.360229 
	C1048.907593,1171.199707 1048.815796,1155.032227 1049.132080,1138.875854 
	C1049.260742,1132.308472 1049.255005,1125.312378 1054.813110,1120.337402 
	C1058.449097,1117.082886 1058.788940,1113.255859 1057.476562,1108.980225 
	C1056.697021,1106.440430 1055.796021,1103.936157 1054.899902,1101.433838 
	C1045.127441,1074.144043 1047.970337,1048.566895 1064.769287,1024.602417 
	C1067.437378,1020.796204 1069.785034,1015.960876 1070.089355,1011.453369 
	C1070.985474,998.184326 1070.872070,984.840942 1070.879395,971.526489 
	C1070.880249,970.000183 1069.377563,968.251160 1068.172485,966.986206 
	C1063.921631,962.524414 1058.978149,958.619324 1055.304443,953.744141 
	C1052.441650,949.945190 1049.778687,945.147156 1049.320801,940.564026 
	C1048.414795,931.493591 1048.887817,922.257812 1049.185669,913.103271 
	C1049.424683,905.763062 1050.334717,905.154602 1057.868286,904.812561 
	C1065.071777,904.485535 1068.603027,901.810974 1069.811035,894.548279 
	C1070.706055,889.167175 1070.985596,883.618164 1070.905762,878.153198 
	C1070.692261,863.552368 1068.739746,861.425049 1054.216309,861.041138 
	C1031.401611,860.437866 1008.575745,859.909424 985.756165,859.968628 
	C972.288635,860.003601 958.825073,861.251465 945.357788,861.912781 
	C941.057800,862.124023 938.313843,864.228027 938.080444,868.534851 
	C937.676819,875.979187 936.827515,883.537903 937.664551,890.877625 
	C938.837341,901.160706 942.696167,904.239136 952.970703,905.017883 
	C956.763977,905.305359 958.377258,907.172119 958.653442,910.590027 
	C958.921631,913.908752 958.962219,917.245178 959.145569,920.571533 
	C960.561951,946.259766 959.734192,948.600952 940.773621,965.811035 
	C937.453857,968.824341 936.347473,971.932312 936.362183,976.235535 
	C936.484985,1012.230225 937.229858,1048.251831 936.046448,1084.208008 
	C935.560547,1098.971924 939.250244,1110.005615 951.508240,1118.998291 
M901.553040,1260.958862 
	C898.478577,1260.958862 895.404053,1260.958862 892.261719,1260.958862 
	C892.261719,1276.440186 892.261719,1291.029785 892.261719,1305.746582 
	C966.716187,1305.746582 1040.936646,1305.746582 1115.152710,1305.746582 
	C1115.152710,1290.760620 1115.152710,1276.029663 1115.152710,1260.958862 
	C1044.091797,1260.958862 973.314514,1260.958862 901.553040,1260.958862 
M1094.748901,1111.801392 
	C1103.857422,1118.114990 1113.921021,1122.202271 1125.019165,1121.792236 
	C1149.248535,1120.897217 1167.431152,1109.723267 1177.118774,1087.230591 
	C1186.469849,1065.518921 1181.791626,1045.435181 1166.437378,1028.020752 
	C1150.913452,1010.414001 1125.991699,1005.280029 1104.401245,1014.464478 
	C1082.597900,1023.739502 1068.307983,1046.179077 1070.032959,1069.065918 
	C1071.376099,1086.885498 1079.755249,1100.899536 1094.748901,1111.801392 
z"/>
<path fill="#10065C" opacity="1.000000" stroke="none" 
	d="
M1.000000,835.000000 
	C1.000000,824.312439 1.000000,813.624878 1.468636,802.463745 
	C251.177612,801.990234 500.417938,801.990234 751.000000,801.990234 
	C751.000000,1123.322632 751.000000,1444.161255 751.000000,1765.000000 
	C745.311951,1765.000000 739.623962,1765.000000 733.356567,1764.651611 
	C713.469788,1755.530762 694.133850,1746.820312 674.862000,1737.970459 
	C649.742004,1726.435059 624.635681,1714.868164 599.594604,1703.162842 
	C583.414612,1695.599365 567.275452,1687.937988 551.273682,1680.006592 
	C530.063354,1669.493530 508.923920,1658.830200 487.903442,1647.943115 
	C465.743103,1636.465454 443.668304,1624.814697 421.732483,1612.914429 
	C409.427063,1606.238647 397.404724,1599.028320 385.388275,1591.835938 
	C370.058777,1582.660522 354.644806,1573.597534 339.666687,1563.870972 
	C320.753113,1551.588745 301.944855,1539.099365 283.647888,1525.926270 
	C268.000732,1514.660889 252.877014,1502.621582 238.010605,1490.333374 
	C225.353134,1479.870972 212.676163,1469.256470 201.303253,1457.460205 
	C186.998459,1442.622925 173.506088,1426.920410 160.601547,1410.838257 
	C148.065262,1395.214844 136.111389,1379.042847 124.987892,1362.386475 
	C108.714600,1338.018921 92.884010,1313.318481 77.865120,1288.162720 
	C66.522423,1269.164307 56.458935,1249.378052 46.349865,1229.673828 
	C35.629105,1208.777222 27.630930,1186.765137 21.541115,1164.081543 
	C19.714430,1157.277344 18.187963,1150.392456 16.761604,1144.522583 
	C52.878178,1136.664917 88.263466,1128.966309 123.722961,1121.251587 
	C127.360924,1135.234131 131.578125,1149.908813 134.952057,1164.774902 
	C139.850906,1186.359863 145.055695,1207.849976 154.901932,1227.784546 
	C164.274292,1246.760010 173.944580,1265.616821 184.332413,1284.047607 
	C188.399582,1291.263550 194.476669,1297.455322 200.175949,1303.616089 
	C207.672012,1311.719482 215.162674,1319.984863 223.658844,1326.958374 
	C231.069839,1333.041504 239.608154,1337.927368 248.126801,1342.438965 
	C258.255829,1347.803101 268.529388,1353.357422 279.383728,1356.801880 
	C311.331909,1366.940552 344.164124,1370.210571 377.570953,1366.375854 
	C400.521484,1363.741333 423.338287,1360.496460 445.713074,1354.368896 
	C459.312653,1350.644531 473.245850,1348.140259 487.020203,1345.047852 
	C488.098846,1344.805664 489.095032,1344.214722 490.149353,1343.841797 
	C491.940155,1343.208252 493.746704,1342.619263 494.643097,1342.316650 
	C499.951599,1364.913940 504.856323,1386.719482 510.245209,1408.404663 
	C513.816406,1422.775391 517.559265,1437.145264 522.176208,1451.203125 
	C527.206421,1466.519287 532.135010,1482.073730 539.300964,1496.429565 
	C547.541687,1512.938477 556.824951,1529.294800 568.047424,1543.876587 
	C598.681946,1583.681396 638.343384,1609.155640 689.499023,1613.325317 
	C703.532410,1614.469360 717.757507,1613.328247 731.892822,1613.115112 
	C736.157593,1613.050903 738.900757,1610.489258 739.363220,1606.412720 
	C740.272827,1598.394043 740.707703,1590.321533 741.423157,1581.197144 
	C707.108276,1587.821167 676.323242,1580.443481 645.875977,1566.844727 
	C647.501892,1564.209351 648.445618,1562.248779 649.772461,1560.595703 
	C663.186768,1543.881958 676.550293,1527.125366 690.161560,1510.572876 
	C699.832642,1498.812012 709.876709,1487.358398 719.712219,1475.732056 
	C720.955872,1474.261963 721.829529,1472.479492 723.070007,1471.006226 
	C728.294922,1464.800415 733.798889,1458.814697 738.739746,1452.393677 
	C740.197388,1450.499390 740.687561,1447.439453 740.689514,1444.913086 
	C740.703857,1426.081177 740.488586,1407.249268 740.326904,1388.417358 
	C740.316101,1387.165283 740.152710,1385.914673 739.962097,1383.332642 
	C697.288940,1437.689941 655.368347,1491.088623 613.402466,1544.545044 
	C612.085754,1543.753296 611.268250,1543.451050 610.702942,1542.893188 
	C603.288086,1535.576660 595.728699,1528.389771 588.683350,1520.730835 
	C587.380737,1519.314819 587.447876,1515.689941 588.208374,1513.557251 
	C589.232422,1510.685547 591.328857,1508.093384 593.338928,1505.694580 
	C600.459839,1497.196411 607.911011,1488.971191 614.920654,1480.384399 
	C626.237976,1466.520630 637.249023,1452.406982 648.493408,1438.482910 
	C658.608398,1425.957520 668.932861,1413.601074 679.031128,1401.062378 
	C685.377991,1393.181519 691.332214,1384.983032 697.723816,1377.140015 
	C706.698547,1366.127563 716.203430,1355.534302 724.864319,1344.286255 
	C727.661194,1340.653931 729.809021,1340.013550 733.479858,1341.888672 
	C735.640076,1342.992188 737.890137,1343.919556 740.647949,1345.175659 
	C740.647949,1331.015869 740.790222,1317.572510 740.468689,1304.140381 
	C740.428284,1302.454102 738.265625,1299.925781 736.541443,1299.307861 
	C714.585999,1291.439575 691.874695,1287.704712 668.566162,1287.049438 
	C616.116638,1285.574829 565.861328,1297.817993 515.819641,1311.318970 
	C512.043396,1312.337891 510.640808,1311.773682 509.882416,1308.241333 
	C508.177673,1300.301270 506.470917,1292.360474 504.638916,1284.449097 
	C498.866608,1259.521240 492.388000,1234.831299 483.160339,1210.872314 
	C474.412720,1188.159668 463.844269,1166.415649 449.806854,1146.595459 
	C439.616241,1132.206787 427.446106,1119.488892 413.965485,1107.879395 
	C400.362610,1096.164673 385.404053,1086.795532 368.950104,1080.375244 
	C323.956726,1062.818726 277.374756,1060.924683 230.352615,1069.718262 
	C201.599152,1075.095581 173.121689,1081.966553 144.575348,1088.410522 
	C141.002350,1089.217285 139.639008,1088.267212 138.948349,1085.106934 
	C137.482452,1078.399536 135.984360,1071.699219 134.517639,1064.991943 
	C131.481216,1051.106567 128.799377,1037.132935 125.355812,1023.349426 
	C118.201256,994.712158 109.740532,966.514343 97.359016,939.569214 
	C82.859787,908.015320 63.452984,880.152344 37.295807,857.204529 
	C26.771572,847.971619 15.088799,840.422974 1.779610,835.065796 
	C1.355313,834.975525 1.177657,834.987732 1.000000,835.000000 
z"/>
<path fill="#10065C" opacity="1.000000" stroke="none" 
	d="
M733.000000,0.999995 
	C739.354431,1.000000 745.708801,1.000000 752.537354,1.468629 
	C752.674316,38.179855 752.199524,74.421799 752.027466,110.665184 
	C751.610046,198.573044 751.323853,286.481567 751.002747,374.389862 
	C750.657898,468.797852 750.298645,563.205750 750.017822,657.613953 
	C749.909790,693.945557 750.000549,730.277771 750.000732,766.609680 
	C750.000732,768.362061 750.000732,770.114502 750.000732,772.001343 
	C747.495361,772.001343 745.671753,772.010681 743.848267,772.000000 
	C687.103577,771.667969 630.359375,771.186890 573.614197,771.028625 
	C423.873322,770.611023 274.132111,770.316956 124.390976,770.011597 
	C86.725922,769.934814 49.060577,770.000244 11.395368,770.000305 
	C9.642567,770.000305 7.889766,770.000305 6.999756,770.000305 
	C6.999756,744.082642 6.872950,718.847778 7.031616,693.614624 
	C7.233330,661.535217 7.673833,629.457214 7.997677,597.378540 
	C8.340075,563.461853 8.658063,529.544922 9.002115,495.628265 
	C9.324154,463.881775 9.673153,432.135559 9.997814,400.389099 
	C10.339510,366.976837 10.755570,333.565002 10.969793,300.151886 
	C11.123653,276.153778 10.910868,252.153427 11.044911,228.155106 
	C11.094685,219.244232 11.595712,210.332367 12.085494,201.431656 
	C12.150229,200.255203 13.102991,198.769180 14.096352,198.055283 
	C33.111973,184.389114 52.221855,170.854202 71.256714,157.214645 
	C88.151726,145.108398 102.833702,130.697891 115.977219,114.603325 
	C130.852295,96.388435 143.081039,76.490395 153.960754,55.748917 
	C161.951355,40.515358 169.439133,25.015181 176.966293,9.543954 
	C178.350281,6.699294 180.112900,5.965898 183.093170,5.932557 
	C201.840942,5.722820 220.585205,5.182334 239.333054,5.001472 
	C282.244202,4.587505 325.156769,4.329604 368.068604,3.985363 
	C408.147491,3.663846 448.226105,3.301182 488.304993,2.977727 
	C531.050232,2.632753 573.795105,2.198241 616.541016,2.015939 
	C653.872192,1.856729 691.204590,2.005199 728.536377,1.957494 
	C730.024658,1.955592 731.512146,1.333249 733.000000,0.999995 
M450.092896,166.569092 
	C447.865173,154.929230 439.835693,148.609772 429.190063,146.284805 
	C417.383392,143.706253 405.240021,141.297180 393.235168,141.257507 
	C358.258057,141.141891 323.278748,142.419418 288.296478,142.795654 
	C271.770294,142.973419 261.633118,151.306320 255.793365,166.044601 
	C253.154816,172.703766 253.513962,175.835068 259.492523,179.848083 
	C275.451782,190.560455 281.403473,206.383636 281.886444,224.397339 
	C282.542511,248.867447 282.004913,273.368225 282.167999,297.854584 
	C282.188721,300.969879 280.279999,301.251740 278.301025,301.979492 
	C258.862305,309.128052 240.211823,317.749481 223.966064,330.906403 
	C208.379990,343.528992 196.706528,359.551727 184.894745,375.490387 
	C149.676147,423.013611 139.347336,476.343933 150.408630,533.526978 
	C170.766647,638.770691 272.943085,711.605530 379.632507,697.728882 
	C442.406952,689.564026 491.638184,658.719482 525.971497,605.696899 
	C559.429138,554.026733 569.949951,497.784821 553.886963,437.668793 
	C544.034119,400.794037 521.688782,371.139862 496.665283,343.434753 
	C478.364044,323.172241 454.475708,311.355133 429.223145,302.170105 
	C425.802551,300.925964 424.870911,299.321442 424.882660,295.836365 
	C424.966949,270.842957 424.783325,245.848801 424.771240,220.854858 
	C424.763947,205.725861 429.905182,193.339386 443.401459,185.049225 
	C451.455414,180.102005 452.445892,176.700607 450.092896,166.569092 
z"/>
<path fill="#FEFEFE" opacity="1.000000" stroke="none" 
	d="
M2.026250,835.168396 
	C15.088799,840.422974 26.771572,847.971619 37.295807,857.204529 
	C63.452984,880.152344 82.859787,908.015320 97.359016,939.569214 
	C109.740532,966.514343 118.201256,994.712158 125.355812,1023.349426 
	C128.799377,1037.132935 131.481216,1051.106567 134.517639,1064.991943 
	C135.984360,1071.699219 137.482452,1078.399536 138.948349,1085.106934 
	C139.639008,1088.267212 141.002350,1089.217285 144.575348,1088.410522 
	C173.121689,1081.966553 201.599152,1075.095581 230.352615,1069.718262 
	C277.374756,1060.924683 323.956726,1062.818726 368.950104,1080.375244 
	C385.404053,1086.795532 400.362610,1096.164673 413.965485,1107.879395 
	C427.446106,1119.488892 439.616241,1132.206787 449.806854,1146.595459 
	C463.844269,1166.415649 474.412720,1188.159668 483.160339,1210.872314 
	C492.388000,1234.831299 498.866608,1259.521240 504.638916,1284.449097 
	C506.470917,1292.360474 508.177673,1300.301270 509.882416,1308.241333 
	C510.640808,1311.773682 512.043396,1312.337891 515.819641,1311.318970 
	C565.861328,1297.817993 616.116638,1285.574829 668.566162,1287.049438 
	C691.874695,1287.704712 714.585999,1291.439575 736.541443,1299.307861 
	C738.265625,1299.925781 740.428284,1302.454102 740.468689,1304.140381 
	C740.790222,1317.572510 740.647949,1331.015869 740.647949,1345.175659 
	C737.890137,1343.919556 735.640076,1342.992188 733.479858,1341.888672 
	C729.809021,1340.013550 727.661194,1340.653931 724.864319,1344.286255 
	C716.203430,1355.534302 706.698547,1366.127563 697.723816,1377.140015 
	C691.332214,1384.983032 685.377991,1393.181519 679.031128,1401.062378 
	C668.932861,1413.601074 658.608398,1425.957520 648.493408,1438.482910 
	C637.249023,1452.406982 626.237976,1466.520630 614.920654,1480.384399 
	C607.911011,1488.971191 600.459839,1497.196411 593.338928,1505.694580 
	C591.328857,1508.093384 589.232422,1510.685547 588.208374,1513.557251 
	C587.447876,1515.689941 587.380737,1519.314819 588.683350,1520.730835 
	C595.728699,1528.389771 603.288086,1535.576660 610.702942,1542.893188 
	C611.268250,1543.451050 612.085754,1543.753296 613.402466,1544.545044 
	C655.368347,1491.088623 697.288940,1437.689941 739.962097,1383.332642 
	C740.152710,1385.914673 740.316101,1387.165283 740.326904,1388.417358 
	C740.488586,1407.249268 740.703857,1426.081177 740.689514,1444.913086 
	C740.687561,1447.439453 740.197388,1450.499390 738.739746,1452.393677 
	C733.798889,1458.814697 728.294922,1464.800415 723.070007,1471.006226 
	C721.829529,1472.479492 720.955872,1474.261963 719.712219,1475.732056 
	C709.876709,1487.358398 699.832642,1498.812012 690.161560,1510.572876 
	C676.550293,1527.125366 663.186768,1543.881958 649.772461,1560.595703 
	C648.445618,1562.248779 647.501892,1564.209351 645.875977,1566.844727 
	C676.323242,1580.443481 707.108276,1587.821167 741.423157,1581.197144 
	C740.707703,1590.321533 740.272827,1598.394043 739.363220,1606.412720 
	C738.900757,1610.489258 736.157593,1613.050903 731.892822,1613.115112 
	C717.757507,1613.328247 703.532410,1614.469360 689.499023,1613.325317 
	C638.343384,1609.155640 598.681946,1583.681396 568.047424,1543.876587 
	C556.824951,1529.294800 547.541687,1512.938477 539.300964,1496.429565 
	C532.135010,1482.073730 527.206421,1466.519287 522.176208,1451.203125 
	C517.559265,1437.145264 513.816406,1422.775391 510.245209,1408.404663 
	C504.856323,1386.719482 499.951599,1364.913940 494.643097,1342.316650 
	C493.746704,1342.619263 491.940155,1343.208252 490.149353,1343.841797 
	C489.095032,1344.214722 488.098846,1344.805664 487.020203,1345.047852 
	C473.245850,1348.140259 459.312653,1350.644531 445.713074,1354.368896 
	C423.338287,1360.496460 400.521484,1363.741333 377.570953,1366.375854 
	C344.164124,1370.210571 311.331909,1366.940552 279.383728,1356.801880 
	C268.529388,1353.357422 258.255829,1347.803101 248.126801,1342.438965 
	C239.608154,1337.927368 231.069839,1333.041504 223.658844,1326.958374 
	C215.162674,1319.984863 207.672012,1311.719482 200.175949,1303.616089 
	C194.476669,1297.455322 188.399582,1291.263550 184.332413,1284.047607 
	C173.944580,1265.616821 164.274292,1246.760010 154.901932,1227.784546 
	C145.055695,1207.849976 139.850906,1186.359863 134.952057,1164.774902 
	C131.578125,1149.908813 127.360924,1135.234131 123.722961,1121.251587 
	C88.263466,1128.966309 52.878178,1136.664917 16.761604,1144.522583 
	C18.187963,1150.392456 19.714430,1157.277344 21.541115,1164.081543 
	C27.630930,1186.765137 35.629105,1208.777222 46.349865,1229.673828 
	C56.458935,1249.378052 66.522423,1269.164307 77.865120,1288.162720 
	C92.884010,1313.318481 108.714600,1338.018921 124.987892,1362.386475 
	C136.111389,1379.042847 148.065262,1395.214844 160.601547,1410.838257 
	C173.506088,1426.920410 186.998459,1442.622925 201.303253,1457.460205 
	C212.676163,1469.256470 225.353134,1479.870972 238.010605,1490.333374 
	C252.877014,1502.621582 268.000732,1514.660889 283.647888,1525.926270 
	C301.944855,1539.099365 320.753113,1551.588745 339.666687,1563.870972 
	C354.644806,1573.597534 370.058777,1582.660522 385.388275,1591.835938 
	C397.404724,1599.028320 409.427063,1606.238647 421.732483,1612.914429 
	C443.668304,1624.814697 465.743103,1636.465454 487.903442,1647.943115 
	C508.923920,1658.830200 530.063354,1669.493530 551.273682,1680.006592 
	C567.275452,1687.937988 583.414612,1695.599365 599.594604,1703.162842 
	C624.635681,1714.868164 649.742004,1726.435059 674.862000,1737.970459 
	C694.133850,1746.820312 713.469788,1755.530762 732.888611,1764.651611 
	C489.066101,1765.000000 245.132172,1765.000000 1.000000,1765.000000 
	C1.000000,1470.979126 1.000000,1176.958252 1.383909,882.635254 
	C1.919474,884.847290 2.071129,887.361267 2.295445,891.079773 
	C5.717481,886.671143 8.398074,883.217712 11.353868,879.409729 
	C8.139215,877.090088 5.092597,874.891663 2.085006,872.245361 
	C2.091440,859.587769 2.058845,847.378052 2.026250,835.168396 
M378.592010,1192.088867 
	C372.551056,1199.698730 366.392303,1207.218506 360.494751,1214.937866 
	C349.815277,1228.916260 339.310394,1243.027832 328.697144,1257.057007 
	C319.695526,1268.956055 310.726776,1280.881592 301.586212,1292.673340 
	C295.199036,1300.913086 288.514984,1308.922119 282.033905,1317.090210 
	C280.297852,1319.278076 280.250092,1321.157593 283.382935,1322.383423 
	C298.288910,1328.215942 313.614777,1332.456665 329.497803,1334.498535 
	C331.111908,1334.705933 333.600250,1334.104736 334.492767,1332.954956 
	C340.069763,1325.770996 345.306519,1318.322876 350.659637,1310.964966 
	C355.702759,1304.033203 360.608582,1296.995605 365.830170,1290.200928 
	C373.397369,1280.353760 381.363586,1270.811157 388.852142,1260.906128 
	C399.160431,1247.271606 409.180176,1233.418823 419.329681,1219.664185 
	C419.823242,1218.995239 420.395264,1218.384644 420.897919,1217.721924 
	C427.222473,1209.384399 433.594025,1201.081665 439.812653,1192.665771 
	C440.939056,1191.141235 441.432526,1189.148926 442.104340,1187.630127 
	C440.503540,1185.937256 439.153137,1184.726562 438.058960,1183.316895 
	C430.862335,1174.045044 423.849335,1164.627441 416.513123,1155.468384 
	C412.180054,1150.058594 410.383575,1150.205322 406.249451,1155.615356 
	C397.130157,1167.549438 388.087708,1179.542236 378.592010,1192.088867 
M258.444641,1287.865967 
	C260.944397,1284.176025 263.307800,1280.384521 265.968048,1276.814209 
	C276.172272,1263.118774 286.454010,1249.481079 296.741150,1235.847778 
	C304.841370,1225.112793 312.965424,1214.395874 321.127899,1203.708252 
	C329.112549,1193.253418 337.263550,1182.945068 344.875549,1172.186157 
	C355.028656,1157.835815 366.102905,1144.137085 376.778168,1130.156006 
	C380.309357,1125.531250 379.814148,1123.179199 374.550781,1120.638062 
	C368.875214,1117.897949 363.136536,1115.286255 357.393860,1112.688232 
	C353.244598,1110.811035 349.091827,1108.925537 344.855011,1107.261841 
	C338.093750,1104.606689 337.887054,1112.343750 334.009613,1114.315674 
	C333.483551,1114.583252 333.146454,1115.254150 332.765533,1115.770386 
	C325.886627,1125.094604 319.187073,1134.557129 312.097046,1143.717773 
	C303.186920,1155.229858 293.832947,1166.398315 284.912964,1177.903198 
	C279.361755,1185.062988 274.438995,1192.709106 268.907562,1199.885254 
	C262.611877,1208.052734 255.753052,1215.787598 249.495087,1223.982422 
	C238.396851,1238.515625 227.552429,1253.242676 216.647476,1267.922607 
	C215.500229,1269.467041 214.658615,1271.238403 213.675217,1272.904541 
	C214.223129,1272.607666 214.771057,1272.310913 215.318970,1272.014038 
	C216.393250,1273.706909 217.179932,1275.702393 218.589615,1277.042236 
	C226.374863,1284.441650 234.342178,1291.648926 242.183167,1298.990356 
	C245.593857,1302.183716 248.147781,1301.588745 250.650558,1297.807251 
	C252.843170,1294.494263 255.437119,1291.447021 258.444641,1287.865967 
M177.551086,1193.076782 
	C172.361115,1197.116943 171.056747,1201.915405 174.174759,1207.963257 
	C179.086182,1217.489868 183.705292,1227.166748 188.563614,1236.721191 
	C191.876831,1243.236816 193.880295,1243.375854 198.411240,1237.684937 
	C209.725784,1223.473633 221.140274,1209.340454 232.329727,1195.031372 
	C243.344681,1180.945557 254.014282,1166.589478 265.050629,1152.520752 
	C277.504761,1136.644775 290.248901,1120.996582 302.728577,1105.140381 
	C304.370483,1103.054199 305.194305,1100.324219 306.847473,1096.981812 
	C291.030029,1096.236084 276.460419,1095.455200 261.880859,1094.977905 
	C260.013519,1094.916870 257.589294,1095.951538 256.291260,1097.308960 
	C251.855286,1101.947266 247.686478,1106.858521 243.637573,1111.845703 
	C236.955490,1120.076050 230.551056,1128.532593 223.843033,1136.741333 
	C208.616364,1155.374512 193.276215,1173.914795 177.551086,1193.076782 
M587.795471,1453.296021 
	C622.130676,1411.572021 656.465881,1369.848022 691.253296,1327.574463 
	C689.411621,1326.547119 687.839539,1325.059570 686.079529,1324.787598 
	C674.909912,1323.061523 663.687073,1321.682983 652.506714,1320.021973 
	C647.487122,1319.276367 644.298157,1321.948608 641.609924,1325.442139 
	C630.677063,1339.649902 619.909729,1353.985352 608.963196,1368.182495 
	C597.201416,1383.437256 585.302063,1398.585938 573.474304,1413.789917 
	C570.453796,1417.672607 567.491089,1421.600220 564.477051,1425.488037 
	C559.311584,1432.150757 553.902100,1438.642578 549.103760,1445.558960 
	C547.863525,1447.346680 547.572693,1450.861450 548.457764,1452.874023 
	C552.791626,1462.729614 557.670166,1472.345459 563.052979,1483.488403 
	C571.772644,1472.838867 579.552429,1463.337280 587.795471,1453.296021 
M83.175720,1046.682617 
	C87.526329,1041.642090 91.558243,1036.273682 96.314354,1031.650391 
	C101.388298,1026.717896 102.465286,1024.504761 100.289146,1017.756104 
	C97.941277,1010.474976 95.701797,1003.150208 93.062576,995.974121 
	C90.530746,989.090027 87.547234,982.372131 84.466629,974.860474 
	C74.658691,985.288696 65.850838,994.824280 56.851593,1004.175659 
	C47.176746,1014.229309 37.227413,1024.019409 27.579079,1034.097900 
	C21.032900,1040.935913 15.163644,1048.461426 8.279728,1054.920776 
	C4.544484,1058.425659 4.615601,1061.816650 5.408435,1065.934082 
	C5.591812,1066.886475 5.889113,1067.825073 5.985448,1068.784912 
	C7.338894,1082.269531 8.630215,1095.760620 10.066486,1109.236206 
	C10.187435,1110.370972 10.972701,1111.880005 11.905169,1112.404297 
	C15.417589,1114.378906 27.243864,1111.368774 30.030439,1108.072266 
	C37.164860,1099.632080 44.240784,1091.140747 51.488003,1082.798340 
	C61.836540,1070.886108 72.316948,1059.088379 83.175720,1046.682617 
M392.367340,1335.956543 
	C417.903229,1334.741455 442.626251,1328.661743 467.472900,1323.349487 
	C473.471313,1322.067139 479.392029,1320.423096 485.354462,1318.969971 
	C488.522278,1318.197998 489.635712,1316.450684 488.719879,1313.163940 
	C486.077667,1303.680786 483.817322,1294.087280 481.012451,1284.654419 
	C476.054626,1267.980835 470.886353,1251.367798 465.594360,1234.797119 
	C464.748688,1232.149170 462.801422,1229.853027 461.013489,1226.795898 
	C459.114014,1228.852173 457.920868,1229.977783 456.919983,1231.254272 
	C450.268219,1239.737305 443.724792,1248.305908 437.016541,1256.743774 
	C428.696136,1267.209473 420.155762,1277.501221 411.881958,1288.003174 
	C401.162781,1301.609009 390.571930,1315.316650 380.037048,1329.065796 
	C378.562256,1330.990601 377.720215,1333.400024 376.376801,1335.986572 
	C382.119843,1335.986572 386.759369,1335.986572 392.367340,1335.956543 
M54.797707,922.724670 
	C51.308884,918.286377 47.763752,913.890930 44.347610,909.397400 
	C41.140095,905.178223 37.696323,905.204102 34.445942,909.472229 
	C32.134823,912.507141 29.804159,915.555298 27.201099,918.334167 
	C20.297199,925.704712 13.314215,933.005066 6.209825,940.182007 
	C3.258698,943.163269 1.594722,946.244019 1.907664,950.668884 
	C2.535687,959.549133 2.828131,968.462402 2.958254,977.366394 
	C3.126044,988.847778 2.988469,1000.333435 3.014318,1011.817200 
	C3.017030,1013.022522 3.234652,1014.227295 3.356472,1015.472229 
	C14.748836,1004.115234 26.011457,993.164001 36.951809,981.899719 
	C46.961346,971.593872 56.457664,960.786987 66.543297,950.559082 
	C69.369431,947.692993 69.706146,945.381531 67.771942,942.381226 
	C63.647297,935.982971 59.412003,929.656067 54.797707,922.724670 
M564.341675,1326.914673 
	C551.644958,1329.520386 538.943542,1332.103760 526.253113,1334.739868 
	C517.626221,1336.531738 516.856262,1337.647339 517.919312,1346.472656 
	C518.077942,1347.789551 518.283325,1349.109863 518.594360,1350.397827 
	C521.864929,1363.941284 525.097595,1377.494385 528.476379,1391.010986 
	C530.312317,1398.355591 532.408936,1405.635010 534.801941,1414.472168 
	C558.188416,1383.081299 580.554321,1353.060181 602.920288,1323.039062 
	C602.574768,1322.527466 602.229187,1322.015991 601.883667,1321.504395 
	C589.650024,1323.257935 577.416443,1325.011475 564.341675,1326.914673 
M169.903809,1108.443970 
	C165.219910,1109.586670 160.558380,1110.833008 155.847321,1111.849976 
	C146.684891,1113.827881 145.581848,1115.112549 147.605759,1124.289917 
	C149.966995,1134.996704 152.686234,1145.628662 155.482361,1156.231934 
	C156.109024,1158.608154 157.699905,1160.730225 158.846848,1162.969238 
	C160.270309,1161.390869 161.694550,1159.813232 163.115829,1158.232910 
	C163.226746,1158.109619 163.313080,1157.964600 163.419205,1157.836670 
	C176.951279,1141.523071 190.484390,1125.210449 204.016739,1108.896973 
	C205.835739,1106.704102 207.650787,1104.508057 209.467682,1102.313599 
	C209.143509,1101.673950 208.819351,1101.034302 208.495178,1100.394653 
	C195.897858,1102.997559 183.300537,1105.600464 169.903809,1108.443970 
M116.895302,1086.521606 
	C115.217209,1078.121704 113.539108,1069.721802 111.498444,1059.506958 
	C96.916191,1075.032959 83.320091,1089.508911 68.946968,1104.812256 
	C71.663246,1104.812256 72.847336,1105.010254 73.942528,1104.781860 
	C86.129982,1102.240356 98.331047,1099.753296 110.470932,1096.998169 
	C117.802147,1095.334229 118.153763,1094.544434 116.895302,1086.521606 
M455.500000,1343.009766 
	C466.269989,1343.009766 477.039948,1343.009766 487.809937,1343.009766 
	C487.807312,1342.752686 487.804718,1342.495728 487.802124,1342.238647 
	C436.306549,1342.238647 384.810974,1342.238647 333.315399,1342.238647 
	C333.314728,1342.495728 333.314056,1342.752686 333.313416,1343.009766 
	C373.708954,1343.009766 414.104462,1343.009766 455.500000,1343.009766 
M508.656097,1342.006104 
	C505.117401,1342.006104 501.578705,1342.006104 498.039978,1342.006104 
	C502.102600,1342.847046 506.159119,1342.848999 510.215515,1342.821899 
	C510.259430,1342.821655 510.364136,1342.276611 510.333496,1342.264893 
	C510.035492,1342.150635 509.714539,1342.096191 508.656097,1342.006104 
z"/>
<path fill="#FFFFFF" opacity="1.000000" stroke="none" 
	d="
M801.468628,1765.000000 
	C809.194214,1761.042480 817.327820,1756.952393 825.599426,1753.163818 
	C834.196045,1749.226196 842.997498,1745.734741 851.584351,1741.776978 
	C875.938660,1730.551758 900.242554,1719.216797 924.539307,1707.867188 
	C937.207947,1701.949463 949.901184,1696.075195 962.441589,1689.893921 
	C993.264832,1674.701050 1024.170044,1659.660645 1054.725464,1643.943115 
	C1077.012695,1632.478882 1098.863281,1620.156250 1120.787964,1607.998657 
	C1158.395386,1587.144653 1195.115234,1564.812256 1230.341309,1540.136108 
	C1248.456421,1527.446289 1266.066040,1514.025513 1283.736084,1500.712036 
	C1302.192139,1486.806641 1320.208130,1472.280884 1335.960205,1455.336548 
	C1347.963135,1442.425171 1359.614258,1429.072510 1370.246094,1415.026367 
	C1389.235229,1389.939087 1407.828735,1364.518066 1425.640259,1338.585693 
	C1437.911011,1320.720459 1448.865356,1301.923462 1459.878662,1283.230957 
	C1468.041626,1269.376221 1475.791504,1255.237427 1482.939453,1240.835083 
	C1493.281372,1219.996826 1503.134888,1198.843872 1509.175537,1176.288818 
	C1514.003174,1158.263184 1518.438232,1140.076050 1521.803711,1121.732422 
	C1524.765991,1105.586914 1526.190430,1089.145142 1527.935303,1072.795898 
	C1528.980103,1063.005859 1529.500488,1053.149902 1529.956909,1043.309570 
	C1530.478394,1032.068115 1530.833252,1020.813232 1530.969360,1009.560669 
	C1531.387817,974.988770 1531.664795,940.415100 1532.006592,905.842224 
	C1532.024658,904.015381 1532.132324,902.189392 1532.599121,900.181519 
	C1533.000000,1188.254395 1533.000000,1476.508667 1533.000000,1765.000000 
	C1289.312500,1765.000000 1045.624878,1765.000000 801.468628,1765.000000 
z"/>
<path fill="#FFFFFF" opacity="1.000000" stroke="none" 
	d="
M732.531372,0.999995 
	C731.512146,1.333249 730.024658,1.955592 728.536377,1.957494 
	C691.204590,2.005199 653.872192,1.856729 616.541016,2.015939 
	C573.795105,2.198241 531.050232,2.632753 488.304993,2.977727 
	C448.226105,3.301182 408.147491,3.663846 368.068604,3.985363 
	C325.156769,4.329604 282.244202,4.587505 239.333054,5.001472 
	C220.585205,5.182334 201.840942,5.722820 183.093170,5.932557 
	C180.112900,5.965898 178.350281,6.699294 176.966293,9.543954 
	C169.439133,25.015181 161.951355,40.515358 153.960754,55.748917 
	C143.081039,76.490395 130.852295,96.388435 115.977219,114.603325 
	C102.833702,130.697891 88.151726,145.108398 71.256714,157.214645 
	C52.221855,170.854202 33.111973,184.389114 14.096352,198.055283 
	C13.102991,198.769180 12.150229,200.255203 12.085494,201.431656 
	C11.595712,210.332367 11.094685,219.244232 11.044911,228.155106 
	C10.910868,252.153427 11.123653,276.153778 10.969793,300.151886 
	C10.755570,333.565002 10.339510,366.976837 9.997814,400.389099 
	C9.673153,432.135559 9.324154,463.881775 9.002115,495.628265 
	C8.658063,529.544922 8.340075,563.461853 7.997677,597.378540 
	C7.673833,629.457214 7.233330,661.535217 7.031616,693.614624 
	C6.872950,718.847778 6.999756,744.082642 6.999756,770.000305 
	C7.889766,770.000305 9.642567,770.000305 11.395368,770.000305 
	C49.060577,770.000244 86.725922,769.934814 124.390976,770.011597 
	C274.132111,770.316956 423.873322,770.611023 573.614197,771.028625 
	C630.359375,771.186890 687.103577,771.667969 743.848267,772.000000 
	C745.671753,772.010681 747.495361,772.001343 750.000732,772.001343 
	C750.000732,770.114502 750.000732,768.362061 750.000732,766.609680 
	C750.000549,730.277771 749.909790,693.945557 750.017822,657.613953 
	C750.298645,563.205750 750.657898,468.797852 751.002747,374.389862 
	C751.323853,286.481567 751.610046,198.573044 752.027466,110.665184 
	C752.199524,74.421799 752.674316,38.179855 753.005737,1.468629 
	C762.354248,1.000000 771.708435,1.000000 781.531372,1.000000 
	C781.990356,84.987312 781.847168,168.974884 782.007690,252.961853 
	C782.176636,341.360596 782.623657,429.758820 782.971863,518.157166 
	C783.297791,600.889893 783.653625,683.622498 783.995178,766.355164 
	C784.002014,768.012878 783.995972,769.670593 783.995972,772.039246 
	C1032.275024,771.370544 1280.433960,770.702209 1529.395508,770.031677 
	C1528.907959,763.203918 1528.091919,756.853699 1528.062744,750.499878 
	C1527.927734,721.171631 1528.142578,691.841675 1527.983154,662.513672 
	C1527.801514,629.104614 1527.366455,595.696899 1527.022705,562.288757 
	C1526.697876,530.708618 1526.334229,499.128906 1526.013306,467.548706 
	C1525.666992,433.473053 1525.368286,399.396973 1525.015503,365.321411 
	C1524.704224,335.244690 1524.371582,305.168121 1524.002075,275.092072 
	C1523.704346,250.848251 1523.384033,226.604340 1522.890259,202.364197 
	C1522.859131,200.839386 1521.593262,198.829239 1520.290771,197.918884 
	C1505.491699,187.574829 1490.265015,177.816132 1475.782837,167.053116 
	C1463.762085,158.119553 1452.441040,148.219513 1441.061768,138.454422 
	C1426.387573,125.861877 1414.427246,110.772522 1403.631104,94.895836 
	C1395.518188,82.965050 1388.270020,70.385605 1381.413818,57.675846 
	C1372.312500,40.804340 1363.967407,23.524927 1355.083740,5.999131 
	C1338.041016,5.999131 1320.384399,6.095707 1302.729248,5.979783 
	C1261.154785,5.706802 1219.581055,5.333489 1178.006958,4.998815 
	C1136.766235,4.666825 1095.525391,4.331396 1054.284668,3.999410 
	C1012.710632,3.664743 971.136536,3.331463 929.562500,2.999405 
	C887.655151,2.664685 845.747742,2.333227 803.840454,1.991361 
	C803.014282,1.984622 802.189026,1.867400 801.181641,1.400862 
	C1044.930420,1.000000 1288.860718,1.000000 1533.000000,1.000000 
	C1533.000000,267.687531 1533.000000,534.375122 1533.000000,801.531372 
	C1283.550293,802.000000 1034.100586,802.000000 784.300171,802.000000 
	C783.863770,1122.803223 783.427612,1443.432983 782.995728,1764.531372 
	C772.645752,1765.000000 762.291565,1765.000000 751.468628,1765.000000 
	C751.000000,1444.161255 751.000000,1123.322632 751.000000,801.990234 
	C500.417938,801.990234 251.177612,801.990234 1.468636,801.995117 
	C1.000000,535.076172 1.000000,268.152374 1.000000,1.000000 
	C244.687515,1.000000 488.375092,1.000000 732.531372,0.999995 
z"/>
<path fill="#150B60" opacity="1.000000" stroke="none" 
	d="
M2.045972,872.693237 
	C5.092597,874.891663 8.139215,877.090088 11.353868,879.409729 
	C8.398074,883.217712 5.717481,886.671143 2.295445,891.079773 
	C2.071129,887.361267 1.919474,884.847290 1.383909,882.166626 
	C1.000000,879.299988 1.000000,876.599976 1.231283,873.270264 
	C1.657033,872.658142 1.851499,872.675720 2.045972,872.693237 
z"/>
<path fill="#E1E0EA" opacity="1.000000" stroke="none" 
	d="
M2.085000,872.245361 
	C1.851499,872.675720 1.657033,872.658142 1.231283,872.820312 
	C1.000000,860.645752 1.000000,848.291565 1.000000,835.468628 
	C1.177657,834.987732 1.355313,834.975525 1.779610,835.065796 
	C2.058845,847.378052 2.091440,859.587769 2.085000,872.245361 
z"/>
<path fill="#FDFDFD" opacity="1.000000" stroke="none" 
	d="
M834.091064,200.907806 
	C825.335693,192.789719 817.183350,184.609634 810.173828,174.560974 
	C823.730896,172.978683 836.432068,171.751984 849.054688,169.969009 
	C874.170593,166.421280 897.818604,158.366913 920.019226,146.062546 
	C934.027527,138.298676 945.001770,127.341293 953.875610,114.157158 
	C964.198425,98.820366 978.637634,89.797523 996.657593,86.435806 
	C1013.589844,83.277023 1030.255737,84.532249 1046.163574,91.240044 
	C1065.392456,99.348175 1077.234375,113.142166 1077.452515,135.595428 
	C1083.623657,135.035324 1089.493042,134.502594 1095.756348,133.934128 
	C1095.756348,129.732269 1096.100830,125.731834 1095.602905,121.839127 
	C1095.373047,120.041191 1093.886475,117.719673 1092.308594,116.884552 
	C1076.902100,108.730087 1074.141602,88.755562 1080.937988,74.921982 
	C1087.856445,60.840000 1104.672607,54.296574 1120.110840,59.975372 
	C1132.098267,64.384766 1138.405884,73.611107 1139.914795,85.895790 
	C1141.498657,98.791382 1137.558472,109.689850 1125.850952,116.592842 
	C1123.452148,118.007172 1122.582764,119.375343 1122.722778,122.005981 
	C1122.915649,125.632454 1122.771118,129.276871 1122.771118,133.357224 
	C1128.810913,133.836029 1134.565308,134.292206 1140.531250,134.765152 
	C1140.834961,131.298050 1140.824341,127.950615 1141.460938,124.731194 
	C1144.937256,107.153206 1156.667603,96.574738 1172.418091,90.281723 
	C1195.699219,80.979912 1218.934326,81.989578 1241.688965,92.607384 
	C1249.403442,96.207085 1256.091187,101.299377 1260.535645,108.530128 
	C1277.792725,136.605362 1304.285889,151.478180 1334.598877,160.954498 
	C1356.951782,167.942368 1379.945923,171.459915 1403.265259,173.049530 
	C1404.412231,173.127731 1405.557983,173.226257 1407.606689,173.385422 
	C1406.421387,175.425674 1405.790649,177.341629 1404.508789,178.587662 
	C1393.429932,189.356674 1382.499878,200.310349 1370.865723,210.452103 
	C1368.296021,212.692108 1362.611572,213.421173 1359.216797,212.286499 
	C1346.187866,207.931747 1333.188721,203.212906 1320.768066,197.375580 
	C1300.191650,187.705399 1281.908325,174.264511 1264.011353,160.349564 
	C1262.180420,158.926010 1260.318359,157.542297 1257.986450,155.772491 
	C1242.048340,173.468262 1220.975708,177.342026 1198.298462,176.897873 
	C1200.679199,202.120895 1186.055176,215.532791 1165.952759,225.075073 
	C1153.314697,231.074142 1139.835083,233.798355 1125.922729,234.665939 
	C1121.624023,234.934021 1121.634033,235.094650 1122.065796,240.358826 
	C1151.585693,239.332565 1178.079102,231.592392 1197.002808,207.772049 
	C1207.259399,218.077911 1217.215942,228.082108 1227.421631,238.336807 
	C1221.004028,246.824127 1212.024902,253.381882 1202.473022,259.202881 
	C1201.499878,259.795959 1199.323364,259.310059 1198.200562,258.571686 
	C1195.995483,257.121704 1194.079468,255.204117 1192.148682,253.369705 
	C1183.286011,244.949646 1172.799072,242.715622 1161.152710,245.410416 
	C1147.697266,248.523804 1135.622437,254.787140 1124.112671,262.232422 
	C1123.143799,262.859161 1122.180176,263.600250 1121.458618,264.487061 
	C1113.917969,273.753540 1104.485962,273.859314 1096.673340,264.731720 
	C1096.245239,264.231659 1095.729126,263.781097 1095.183838,263.410706 
	C1082.110229,254.529251 1068.224854,247.627670 1052.252441,245.799438 
	C1041.135498,244.526978 1031.683716,247.584717 1023.668457,255.687271 
	C1016.767212,262.663666 1018.513245,262.552704 1010.419067,256.674408 
	C1003.199036,251.430878 996.687866,245.211349 990.016724,239.552216 
	C1000.835388,228.920059 1010.900574,219.028397 1021.854492,208.263260 
	C1022.597595,209.247742 1023.881409,211.134003 1025.349121,212.864395 
	C1039.678711,229.759796 1059.148071,236.345947 1080.056885,239.889954 
	C1084.471069,240.638153 1088.996826,240.857346 1093.480225,240.976242 
	C1094.573486,241.005219 1095.702759,239.674286 1096.815552,238.968582 
	C1095.885864,237.891098 1095.096313,236.060318 1094.004028,235.857208 
	C1086.319092,234.428238 1078.520264,233.594345 1070.855957,232.075775 
	C1057.592163,229.447769 1045.539795,223.977386 1035.096558,215.302246 
	C1023.565857,205.723755 1019.582703,195.956833 1019.828186,178.050751 
	C998.338806,175.977203 975.896118,175.917191 960.283997,156.370178 
	C955.700073,159.802460 951.428162,162.925385 947.236389,166.152313 
	C923.660156,184.301773 898.911865,200.403656 870.417297,209.889877 
	C851.599609,216.154510 851.576904,216.087601 836.610168,203.123566 
	C835.854065,202.468582 835.109985,201.799667 834.091064,200.907806 
M1133.289429,184.902863 
	C1137.425537,182.495514 1141.978027,180.587540 1145.602661,177.566513 
	C1151.394165,172.739548 1153.583130,166.120956 1151.653442,158.678589 
	C1148.976685,148.354843 1133.518311,138.816040 1122.348755,140.586426 
	C1122.348755,155.970825 1122.348755,171.409973 1122.348755,187.477280 
	C1125.841797,186.656433 1129.177856,185.872482 1133.289429,184.902863 
M1073.213135,149.690933 
	C1067.231934,155.234512 1063.364624,161.529495 1066.523193,170.020584 
	C1070.112915,179.670746 1085.381470,188.616257 1095.821899,187.401886 
	C1095.821899,171.957108 1095.821899,156.526413 1095.821899,140.719528 
	C1087.052124,140.642700 1080.106079,144.143661 1073.213135,149.690933 
z"/>
<path fill="#FDFDFD" opacity="1.000000" stroke="none" 
	d="
M1123.620117,274.581360 
	C1134.479736,268.788574 1144.799683,262.657043 1155.681152,257.777466 
	C1169.430420,251.611877 1182.140869,253.259598 1193.002441,264.886047 
	C1196.197388,268.305939 1200.593140,270.800476 1204.799438,273.041931 
	C1217.124146,279.609680 1228.467896,287.232758 1236.699463,298.857513 
	C1252.021851,320.496063 1253.705444,343.136841 1241.348145,366.513702 
	C1229.757202,388.441162 1212.464600,404.946808 1189.829224,414.794006 
	C1164.875732,425.649689 1139.211426,434.860596 1113.996460,445.130981 
	C1103.878418,449.252106 1093.509888,453.306305 1084.353516,459.120300 
	C1067.838745,469.606781 1067.648560,489.231659 1083.047852,501.320038 
	C1084.879150,502.757538 1086.857910,504.006165 1088.700195,505.430511 
	C1090.500488,506.822266 1092.213379,508.326904 1093.879639,509.711334 
	C1079.418335,517.454895 1065.325195,525.001282 1050.677612,532.844543 
	C1018.569519,507.029694 1009.113708,468.322693 1035.609131,436.841064 
	C1048.536743,421.480652 1065.815186,412.546783 1083.944214,405.104950 
	C1099.921509,398.546417 1116.310913,392.939423 1132.043823,385.857971 
	C1141.031128,381.812775 1149.979126,376.694122 1157.332642,370.225861 
	C1169.783447,359.273895 1176.251709,345.246185 1170.939941,328.194946 
	C1166.156860,312.840363 1150.484741,301.436310 1134.464478,300.945923 
	C1130.477783,300.823914 1126.455811,300.699036 1122.526855,300.084717 
	C1113.429932,298.662354 1109.681763,290.124786 1115.046265,282.592163 
	C1117.203003,279.563782 1120.533691,277.371429 1123.620117,274.581360 
z"/>
<path fill="#FDFDFD" opacity="1.000000" stroke="none" 
	d="
M1043.879639,337.636414 
	C1045.280884,348.483887 1051.081177,356.547455 1057.680420,364.161163 
	C1066.080200,373.852173 1076.446899,381.036987 1087.500854,387.325928 
	C1089.230713,388.310028 1090.941528,389.327332 1093.356812,390.734558 
	C1089.295654,392.633881 1085.812256,394.461395 1082.182251,395.925812 
	C1067.483521,401.855835 1053.355591,408.778992 1040.727417,418.529053 
	C1039.543091,419.443390 1037.112183,419.963196 1035.853271,419.381866 
	C1007.145508,406.126373 984.205872,386.824493 974.186951,355.799835 
	C964.512573,325.842438 979.216431,293.376221 1008.007629,276.878204 
	C1016.730957,271.879547 1024.872559,265.743195 1032.798950,259.515198 
	C1039.109863,254.556549 1046.012573,253.926788 1053.095215,255.552750 
	C1070.559204,259.561920 1085.922729,268.135101 1099.968018,279.031342 
	C1102.443359,280.951752 1104.424805,284.095703 1105.525513,287.083160 
	C1108.067627,293.983032 1103.972168,300.090515 1096.254395,300.898010 
	C1089.814209,301.571808 1083.294312,301.518158 1076.807373,301.702209 
	C1060.041016,302.177887 1048.264404,310.423920 1044.668823,324.830383 
	C1043.685059,328.771912 1044.073608,333.056030 1043.879639,337.636414 
z"/>
<path fill="#FDFCFD" opacity="1.000000" stroke="none" 
	d="
M1147.787231,465.358276 
	C1141.661499,459.865295 1135.734985,454.682007 1129.737793,449.436920 
	C1129.813843,449.397980 1130.833374,448.745209 1131.941528,448.328766 
	C1147.803345,442.367859 1163.711914,436.528870 1179.517822,430.423798 
	C1182.573120,429.243713 1184.776123,429.696075 1187.304321,431.473053 
	C1210.551392,447.812225 1216.481323,475.219391 1202.114380,499.669983 
	C1194.439941,512.730713 1183.658691,522.743225 1170.166016,528.946411 
	C1152.546265,537.046936 1134.170654,543.487000 1116.282349,551.026062 
	C1106.377563,555.200439 1096.365601,559.435608 1087.209106,564.977051 
	C1078.807251,570.061829 1076.016113,578.912048 1079.363037,586.560608 
	C1081.161011,590.669250 1084.723877,594.005493 1087.438721,597.621338 
	C1079.220581,604.197998 1070.536255,611.147949 1061.153320,618.656799 
	C1056.168457,612.085876 1049.975830,605.236511 1045.291992,597.476440 
	C1035.444702,581.161682 1038.991333,560.128906 1053.275146,545.164001 
	C1061.594604,536.447693 1071.801636,530.525696 1082.774414,525.963562 
	C1095.349243,520.735352 1108.151367,516.056519 1120.770996,510.932953 
	C1129.431763,507.416748 1137.798096,503.303833 1144.260986,496.224396 
	C1153.161743,486.474396 1154.345459,476.723663 1147.787231,465.358276 
z"/>
<path fill="#FBFBFC" opacity="1.000000" stroke="none" 
	d="
M1133.902954,587.935852 
	C1144.345581,577.836365 1144.099976,569.143555 1133.400269,559.893127 
	C1132.524048,559.135498 1131.655762,558.368591 1130.309937,557.191467 
	C1132.764038,556.065979 1134.901245,555.010254 1137.096313,554.092712 
	C1144.754150,550.891602 1152.540771,547.971985 1160.057983,544.471802 
	C1164.037109,542.619019 1166.470093,542.777161 1169.773926,546.204529 
	C1184.338379,561.313293 1184.657227,580.354126 1169.929688,595.404419 
	C1159.814697,605.741333 1147.073975,611.838745 1133.832520,616.981750 
	C1125.945923,620.045044 1117.780884,622.443359 1110.046875,625.837585 
	C1092.805176,633.404358 1088.532715,649.084595 1099.197388,664.745178 
	C1105.858887,674.527405 1115.745483,679.300537 1126.888062,681.963928 
	C1127.472778,682.103577 1128.076782,682.161804 1129.695435,682.423462 
	C1109.375732,686.160706 1081.593506,674.141235 1071.206421,657.787842 
	C1063.682251,645.941895 1064.285034,633.106812 1072.966553,622.061401 
	C1079.207153,614.121521 1087.556641,608.998352 1096.657959,605.110901 
	C1104.284912,601.853149 1112.235229,599.342773 1119.816650,595.991211 
	C1124.631592,593.862732 1129.033813,590.800964 1133.902954,587.935852 
z"/>
<path fill="#FCFCFC" opacity="1.000000" stroke="none" 
	d="
M982.084106,177.763885 
	C983.203003,178.463379 984.003723,178.996445 985.000488,179.660049 
	C962.743835,202.548584 937.656189,221.118530 909.145203,234.940765 
	C906.795959,236.079727 903.505310,236.410217 900.955872,235.815063 
	C886.835815,232.518799 873.546082,226.996033 860.098938,219.585007 
	C864.497131,217.959030 868.178955,216.430603 871.963684,215.225098 
	C903.023682,205.332077 929.784424,187.916153 954.856079,167.644775 
	C958.183105,164.954773 960.210327,164.817902 963.739075,167.228439 
	C969.446045,171.126877 975.727234,174.184662 982.084106,177.763885 
z"/>
<path fill="#FBFBFC" opacity="1.000000" stroke="none" 
	d="
M1267.804810,170.207458 
	C1289.942261,187.775024 1313.237549,202.705536 1339.515747,212.519913 
	C1345.402710,214.718597 1351.511353,216.324081 1357.922363,219.446030 
	C1349.310059,223.191223 1340.946167,227.727951 1332.036377,230.525711 
	C1309.809204,237.505203 1316.676025,238.578201 1295.962769,227.269913 
	C1273.771240,215.154495 1254.087036,199.619659 1235.930542,182.099625 
	C1235.009521,181.210907 1234.217163,180.188904 1232.928955,178.738022 
	C1235.634277,177.373413 1237.996460,176.297577 1240.246216,175.023178 
	C1244.994995,172.332993 1249.976929,169.926224 1254.304932,166.662796 
	C1257.655273,164.136597 1260.112915,163.561676 1263.152954,166.677460 
	C1264.415283,167.971237 1266.052490,168.899124 1267.804810,170.207458 
z"/>
<path fill="#FBFBFC" opacity="1.000000" stroke="none" 
	d="
M959.837646,241.803421 
	C944.927612,241.100830 930.497498,240.381149 916.067322,239.661469 
	C915.947021,239.213867 915.826721,238.766266 915.706421,238.318665 
	C917.052673,237.371094 918.294678,236.203629 919.760742,235.508652 
	C945.499512,223.307114 966.913635,205.166199 987.499695,185.959167 
	C991.564514,182.166672 995.432129,180.814102 1000.852112,182.248260 
	C1004.953003,183.333374 1009.348145,183.306641 1013.041077,183.712006 
	C1014.289246,189.169144 1015.690857,194.121964 1016.442078,199.171539 
	C1016.733643,201.131317 1016.235718,203.995361 1014.940063,205.280487 
	C1004.207703,215.925003 993.385986,226.495850 982.210083,236.670242 
	C976.084717,242.246704 967.822632,240.907883 959.837646,241.803421 
z"/>
<path fill="#FBFBFC" opacity="1.000000" stroke="none" 
	d="
M1301.469238,236.423889 
	C1301.688599,237.125900 1301.666748,238.020706 1301.533569,238.037582 
	C1282.044556,240.508057 1262.525146,242.632294 1242.947754,239.163330 
	C1240.301758,238.694473 1237.408081,237.401382 1235.457886,235.595062 
	C1224.236328,225.200882 1213.199585,214.602982 1202.313110,203.858459 
	C1201.279785,202.838608 1201.253052,200.244705 1201.560791,198.525085 
	C1202.461670,193.491638 1203.767822,188.530716 1205.114746,182.674118 
	C1211.303833,182.094421 1218.182861,181.294754 1225.084473,180.943771 
	C1226.359253,180.878952 1227.907593,182.447083 1229.023315,183.566696 
	C1243.987671,198.582016 1260.356445,211.893005 1278.161499,223.353455 
	C1285.535645,228.099930 1293.487061,231.949356 1301.469238,236.423889 
z"/>
<path fill="#FAFAFC" opacity="1.000000" stroke="none" 
	d="
M1107.718384,385.692505 
	C1104.523926,386.750336 1101.691650,387.661591 1097.986816,388.853546 
	C1097.986816,362.564331 1097.986816,336.735626 1097.986816,310.141846 
	C1105.007080,306.935760 1112.755859,307.110992 1120.246460,310.068756 
	C1120.246460,334.061279 1120.246460,357.662262 1120.246460,381.315186 
	C1115.859497,382.840729 1111.970093,384.193298 1107.718384,385.692505 
z"/>
<path fill="#FAFAFC" opacity="1.000000" stroke="none" 
	d="
M1126.567139,667.689880 
	C1135.109253,659.727905 1135.035400,651.837769 1125.981689,644.916870 
	C1121.469971,641.467834 1116.101074,639.140137 1110.108521,635.729675 
	C1120.155396,632.019287 1129.532227,628.354492 1139.078247,625.202148 
	C1140.976318,624.575317 1143.759888,625.435486 1145.730713,626.419739 
	C1157.258911,632.176758 1161.567871,648.283875 1154.473633,659.064209 
	C1149.116577,667.204712 1141.188354,672.105652 1132.034180,674.609497 
	C1129.213135,675.381104 1125.708374,673.653564 1122.516724,673.070374 
	C1122.452271,672.443176 1122.387939,671.816040 1122.323608,671.188843 
	C1123.641846,670.098816 1124.960205,669.008789 1126.567139,667.689880 
z"/>
<path fill="#FAFAFC" opacity="1.000000" stroke="none" 
	d="
M1099.262695,486.998444 
	C1099.255371,477.513824 1099.255371,468.529053 1099.255371,459.246002 
	C1105.743164,457.131104 1112.296265,454.994934 1119.072754,452.785950 
	C1119.072754,462.533905 1119.089478,471.796356 1119.066528,481.058746 
	C1119.052124,486.888763 1118.821533,492.723389 1118.999390,498.546448 
	C1119.084473,501.334198 1118.250244,502.725189 1115.516968,503.545715 
	C1110.432983,505.071869 1105.462402,506.976013 1099.270142,509.131653 
	C1099.270142,501.641968 1099.270142,494.570129 1099.262695,486.998444 
z"/>
<path fill="#F7F7F9" opacity="1.000000" stroke="none" 
	d="
M1101.467285,698.992554 
	C1101.461182,695.544434 1101.461182,692.569153 1101.461182,688.931824 
	C1106.308594,689.749878 1110.652344,690.341431 1114.905884,691.324036 
	C1115.724609,691.513184 1116.738403,693.240662 1116.730469,694.251160 
	C1116.665771,702.534119 1116.515137,710.821899 1116.106201,719.094238 
	C1115.894043,723.384888 1113.845215,726.324951 1108.942139,726.176697 
	C1104.401733,726.039490 1102.195068,723.764526 1101.950562,718.358521 
	C1101.666016,712.066528 1101.621948,705.763672 1101.467285,698.992554 
z"/>
<path fill="#F7F7F9" opacity="1.000000" stroke="none" 
	d="
M1114.875244,561.102661 
	C1116.117188,561.636475 1117.732056,562.249084 1117.750610,562.906738 
	C1117.966309,570.556152 1118.008789,578.213257 1117.900024,585.865479 
	C1117.885254,586.900696 1117.027466,588.495422 1116.158203,588.852173 
	C1111.299561,590.846130 1106.317383,592.539001 1100.107178,594.796570 
	C1100.107178,585.883240 1099.981323,577.793030 1100.239014,569.715027 
	C1100.278931,568.464417 1101.830444,566.788391 1103.105469,566.140198 
	C1106.790283,564.266846 1110.690918,562.817932 1114.875244,561.102661 
z"/>
<path fill="#F7F7F9" opacity="1.000000" stroke="none" 
	d="
M1116.969971,651.379639 
	C1116.972900,657.090576 1116.972900,662.346497 1116.972900,667.702209 
	C1106.892212,663.956299 1101.337402,653.040833 1103.830078,642.325928 
	C1110.350952,642.076172 1116.642944,646.194519 1116.969971,651.379639 
z"/>
<path fill="#FDFDFE" opacity="1.000000" stroke="none" 
	d="
M1288.421387,1418.735596 
	C1289.979004,1423.980469 1292.162109,1428.866333 1292.494141,1433.874756 
	C1293.539795,1449.649536 1293.895752,1465.469971 1294.495972,1481.273682 
	C1294.526489,1482.078979 1294.346680,1482.891968 1294.292847,1483.424316 
	C1146.024902,1483.424316 997.994202,1483.424316 849.301941,1483.424316 
	C848.692505,1476.750977 847.447205,1470.793945 847.757751,1464.918945 
	C848.405273,1452.668213 848.708313,1440.210693 851.263367,1428.290405 
	C855.829590,1406.987183 871.423279,1395.121338 893.285583,1395.049316 
	C949.606445,1394.863770 1005.928040,1394.930176 1062.249390,1394.896240 
	C1064.722046,1394.894775 1067.194580,1394.896240 1070.302734,1394.896240 
	C1070.302734,1392.790161 1070.302734,1391.027710 1070.302734,1389.265259 
	C1070.302856,1370.602539 1070.436279,1351.938110 1070.207886,1333.278198 
	C1070.152100,1328.714111 1071.348633,1327.259521 1076.096436,1327.363770 
	C1089.411865,1327.656494 1102.775879,1327.953491 1116.053223,1327.144409 
	C1129.559082,1326.321411 1136.433472,1318.730103 1136.879517,1305.114136 
	C1137.294067,1292.465210 1137.128906,1279.790527 1136.930176,1267.131836 
	C1136.863647,1262.903442 1138.160645,1261.229126 1142.521851,1260.288086 
	C1154.659912,1257.669189 1163.173828,1249.603882 1169.255981,1239.321655 
	C1185.110596,1212.519409 1185.028076,1184.724731 1173.288940,1156.470337 
	C1172.842896,1155.396851 1172.350708,1154.340942 1171.840698,1153.296021 
	C1165.658203,1140.627930 1165.535278,1140.500366 1176.023315,1130.628418 
	C1190.363525,1117.130737 1200.735718,1101.516357 1203.515015,1081.578735 
	C1205.450317,1067.696899 1203.482300,1054.393188 1197.790283,1041.606934 
	C1195.854248,1037.257935 1193.995117,1032.874756 1191.546875,1027.229614 
	C1194.141235,1028.112427 1195.540039,1028.377075 1196.731079,1029.024414 
	C1246.925293,1056.299683 1278.448730,1098.329590 1288.999023,1153.938599 
	C1300.790649,1216.089844 1288.839478,1273.716919 1245.530884,1322.103271 
	C1235.753174,1333.027344 1223.654785,1341.965698 1212.110718,1351.173828 
	C1207.316650,1354.997681 1204.392334,1358.420898 1204.822144,1364.999023 
	C1205.459351,1374.754639 1204.987061,1384.582886 1204.987061,1394.896240 
	C1215.628906,1394.896240 1225.909180,1394.720703 1236.180176,1394.956421 
	C1243.318115,1395.120239 1250.556152,1395.215698 1257.550171,1396.460815 
	C1271.086914,1398.870728 1281.176147,1406.651733 1288.421387,1418.735596 
z"/>
<path fill="#FDFDFD" opacity="1.000000" stroke="none" 
	d="
M951.254272,1118.750977 
	C939.250244,1110.005615 935.560547,1098.971924 936.046448,1084.208008 
	C937.229858,1048.251831 936.484985,1012.230225 936.362183,976.235535 
	C936.347473,971.932312 937.453857,968.824341 940.773621,965.811035 
	C959.734192,948.600952 960.561951,946.259766 959.145569,920.571533 
	C958.962219,917.245178 958.921631,913.908752 958.653442,910.590027 
	C958.377258,907.172119 956.763977,905.305359 952.970703,905.017883 
	C942.696167,904.239136 938.837341,901.160706 937.664551,890.877625 
	C936.827515,883.537903 937.676819,875.979187 938.080444,868.534851 
	C938.313843,864.228027 941.057800,862.124023 945.357788,861.912781 
	C958.825073,861.251465 972.288635,860.003601 985.756165,859.968628 
	C1008.575745,859.909424 1031.401611,860.437866 1054.216309,861.041138 
	C1068.739746,861.425049 1070.692261,863.552368 1070.905762,878.153198 
	C1070.985596,883.618164 1070.706055,889.167175 1069.811035,894.548279 
	C1068.603027,901.810974 1065.071777,904.485535 1057.868286,904.812561 
	C1050.334717,905.154602 1049.424683,905.763062 1049.185669,913.103271 
	C1048.887817,922.257812 1048.414795,931.493591 1049.320801,940.564026 
	C1049.778687,945.147156 1052.441650,949.945190 1055.304443,953.744141 
	C1058.978149,958.619324 1063.921631,962.524414 1068.172485,966.986206 
	C1069.377563,968.251160 1070.880249,970.000183 1070.879395,971.526489 
	C1070.872070,984.840942 1070.985474,998.184326 1070.089355,1011.453369 
	C1069.785034,1015.960876 1067.437378,1020.796204 1064.769287,1024.602417 
	C1047.970337,1048.566895 1045.127441,1074.144043 1054.899902,1101.433838 
	C1055.796021,1103.936157 1056.697021,1106.440430 1057.476562,1108.980225 
	C1058.788940,1113.255859 1058.449097,1117.082886 1054.813110,1120.337402 
	C1049.255005,1125.312378 1049.260742,1132.308472 1049.132080,1138.875854 
	C1048.815796,1155.032227 1048.907593,1171.199707 1049.075684,1187.360229 
	C1049.116943,1191.324341 1048.130737,1194.385132 1045.165894,1197.081543 
	C1040.854980,1201.002197 1036.709229,1205.117554 1032.669312,1209.319458 
	C1027.478027,1214.718506 1021.030273,1216.867798 1013.783447,1216.973999 
	C1004.455444,1217.110596 995.122131,1217.218750 985.798218,1217.014160 
	C983.883118,1216.972168 981.560425,1215.947632 980.176331,1214.603149 
	C973.728516,1208.339600 967.409485,1201.927124 961.367493,1195.274536 
	C959.990112,1193.757935 959.318420,1191.080811 959.301758,1188.930176 
	C959.171204,1172.100708 958.783813,1155.247192 959.526367,1138.447754 
	C959.889587,1130.230713 958.405762,1123.753418 951.254272,1118.750977 
z"/>
<path fill="#FEFEFE" opacity="1.000000" stroke="none" 
	d="
M902.045166,1260.958862 
	C973.314514,1260.958862 1044.091797,1260.958862 1115.152710,1260.958862 
	C1115.152710,1276.029663 1115.152710,1290.760620 1115.152710,1305.746582 
	C1040.936646,1305.746582 966.716187,1305.746582 892.261719,1305.746582 
	C892.261719,1291.029785 892.261719,1276.440186 892.261719,1260.958862 
	C895.404053,1260.958862 898.478577,1260.958862 902.045166,1260.958862 
z"/>
<path fill="#FDFDFD" opacity="1.000000" stroke="none" 
	d="
M1094.464111,1111.579102 
	C1079.755249,1100.899536 1071.376099,1086.885498 1070.032959,1069.065918 
	C1068.307983,1046.179077 1082.597900,1023.739502 1104.401245,1014.464478 
	C1125.991699,1005.280029 1150.913452,1010.414001 1166.437378,1028.020752 
	C1181.791626,1045.435181 1186.469849,1065.518921 1177.118774,1087.230591 
	C1167.431152,1109.723267 1149.248535,1120.897217 1125.019165,1121.792236 
	C1113.921021,1122.202271 1103.857422,1118.114990 1094.464111,1111.579102 
z"/>
<path fill="#FAFAFC" opacity="1.000000" stroke="none" 
	d="
M450.191589,166.979156 
	C452.445892,176.700607 451.455414,180.102005 443.401459,185.049225 
	C429.905182,193.339386 424.763947,205.725861 424.771240,220.854858 
	C424.783325,245.848801 424.966949,270.842957 424.882660,295.836365 
	C424.870911,299.321442 425.802551,300.925964 429.223145,302.170105 
	C454.475708,311.355133 478.364044,323.172241 496.665283,343.434753 
	C521.688782,371.139862 544.034119,400.794037 553.886963,437.668793 
	C569.949951,497.784821 559.429138,554.026733 525.971497,605.696899 
	C491.638184,658.719482 442.406952,689.564026 379.632507,697.728882 
	C272.943085,711.605530 170.766647,638.770691 150.408630,533.526978 
	C139.347336,476.343933 149.676147,423.013611 184.894745,375.490387 
	C196.706528,359.551727 208.379990,343.528992 223.966064,330.906403 
	C240.211823,317.749481 258.862305,309.128052 278.301025,301.979492 
	C280.279999,301.251740 282.188721,300.969879 282.167999,297.854584 
	C282.004913,273.368225 282.542511,248.867447 281.886444,224.397339 
	C281.403473,206.383636 275.451782,190.560455 259.492523,179.848083 
	C253.513962,175.835068 253.154816,172.703766 255.793365,166.044601 
	C261.633118,151.306320 271.770294,142.973419 288.296478,142.795654 
	C323.278748,142.419418 358.258057,141.141891 393.235168,141.257507 
	C405.240021,141.297180 417.383392,143.706253 429.190063,146.284805 
	C439.835693,148.609772 447.865173,154.929230 450.191589,166.979156 
M206.215134,615.274292 
	C240.540573,655.947021 284.092957,679.224182 337.239227,683.133545 
	C400.945709,687.819702 455.656342,667.815979 497.943512,619.236511 
	C536.721436,574.688477 551.039246,522.061462 543.098816,463.680817 
	C538.384216,429.017609 522.328918,399.050537 501.828033,371.286041 
	C491.108459,356.768494 477.984314,344.617096 462.147980,336.031769 
	C447.279236,327.970978 431.780609,321.052155 416.412323,313.948486 
	C413.063782,312.400665 411.909698,310.782654 411.834778,307.042511 
	C411.144196,272.559082 410.193268,238.080872 409.311401,203.601303 
	C409.270752,202.012436 409.166107,200.425186 409.053802,198.041840 
	C371.669586,198.041840 334.890228,198.041840 297.432861,198.041840 
	C297.432861,199.392334 297.440979,201.171051 297.431671,202.949692 
	C297.250763,237.608566 296.981018,272.267517 297.001526,306.926270 
	C297.003937,310.986115 295.661285,312.617554 292.062958,314.074036 
	C272.401428,322.032440 253.916000,332.189789 237.018066,345.060486 
	C193.980621,377.840759 167.420441,420.469086 162.459244,474.811981 
	C157.685150,527.105530 173.071304,573.733765 206.215134,615.274292 
M392.500000,181.751984 
	C405.875427,181.636444 419.369904,182.930634 431.158081,178.716049 
	C432.526672,175.083252 433.628723,172.157898 434.760040,169.154938 
	C433.690033,167.663437 432.123932,166.197311 431.441711,164.396347 
	C429.309814,158.768433 425.238556,157.702499 419.655487,157.712097 
	C382.859650,157.775360 346.063171,157.429214 309.267151,157.467010 
	C300.635590,157.475861 291.982605,158.230881 283.389832,159.125900 
	C281.255005,159.348267 278.926392,161.098511 277.386627,162.785263 
	C275.476318,164.877930 274.293701,167.634903 272.518280,170.564453 
	C277.465149,176.352493 283.933868,180.931824 292.194855,181.900726 
	C299.268646,182.730392 306.459290,182.887131 313.593414,182.821289 
	C339.563354,182.581589 365.531281,182.123611 392.500000,181.751984 
z"/>
<path fill="#11085D" opacity="1.000000" stroke="none" 
	d="
M378.802948,1191.799927 
	C388.087708,1179.542236 397.130157,1167.549438 406.249451,1155.615356 
	C410.383575,1150.205322 412.180054,1150.058594 416.513123,1155.468384 
	C423.849335,1164.627441 430.862335,1174.045044 438.058960,1183.316895 
	C439.153137,1184.726562 440.503540,1185.937256 442.104340,1187.630127 
	C441.432526,1189.148926 440.939056,1191.141235 439.812653,1192.665771 
	C433.594025,1201.081665 427.222473,1209.384399 420.897919,1217.721924 
	C420.395264,1218.384644 419.823242,1218.995239 419.329681,1219.664185 
	C409.180176,1233.418823 399.160431,1247.271606 388.852142,1260.906128 
	C381.363586,1270.811157 373.397369,1280.353760 365.830170,1290.200928 
	C360.608582,1296.995605 355.702759,1304.033203 350.659637,1310.964966 
	C345.306519,1318.322876 340.069763,1325.770996 334.492767,1332.954956 
	C333.600250,1334.104736 331.111908,1334.705933 329.497803,1334.498535 
	C313.614777,1332.456665 298.288910,1328.215942 283.382935,1322.383423 
	C280.250092,1321.157593 280.297852,1319.278076 282.033905,1317.090210 
	C288.514984,1308.922119 295.199036,1300.913086 301.586212,1292.673340 
	C310.726776,1280.881592 319.695526,1268.956055 328.697144,1257.057007 
	C339.310394,1243.027832 349.815277,1228.916260 360.494751,1214.937866 
	C366.392303,1207.218506 372.551056,1199.698730 378.802948,1191.799927 
z"/>
<path fill="#11085D" opacity="1.000000" stroke="none" 
	d="
M258.149231,1288.074219 
	C255.437119,1291.447021 252.843170,1294.494263 250.650558,1297.807251 
	C248.147781,1301.588745 245.593857,1302.183716 242.183167,1298.990356 
	C234.342178,1291.648926 226.374863,1284.441650 218.589615,1277.042236 
	C217.179932,1275.702393 216.393250,1273.706909 215.318970,1272.014038 
	C214.771057,1272.310913 214.223129,1272.607666 213.675217,1272.904541 
	C214.658615,1271.238403 215.500229,1269.467041 216.647476,1267.922607 
	C227.552429,1253.242676 238.396851,1238.515625 249.495087,1223.982422 
	C255.753052,1215.787598 262.611877,1208.052734 268.907562,1199.885254 
	C274.438995,1192.709106 279.361755,1185.062988 284.912964,1177.903198 
	C293.832947,1166.398315 303.186920,1155.229858 312.097046,1143.717773 
	C319.187073,1134.557129 325.886627,1125.094604 332.765533,1115.770386 
	C333.146454,1115.254150 333.483551,1114.583252 334.009613,1114.315674 
	C337.887054,1112.343750 338.093750,1104.606689 344.855011,1107.261841 
	C349.091827,1108.925537 353.244598,1110.811035 357.393860,1112.688232 
	C363.136536,1115.286255 368.875214,1117.897949 374.550781,1120.638062 
	C379.814148,1123.179199 380.309357,1125.531250 376.778168,1130.156006 
	C366.102905,1144.137085 355.028656,1157.835815 344.875549,1172.186157 
	C337.263550,1182.945068 329.112549,1193.253418 321.127899,1203.708252 
	C312.965424,1214.395874 304.841370,1225.112793 296.741150,1235.847778 
	C286.454010,1249.481079 276.172272,1263.118774 265.968048,1276.814209 
	C263.307800,1280.384521 260.944397,1284.176025 258.149231,1288.074219 
z"/>
<path fill="#12085D" opacity="1.000000" stroke="none" 
	d="
M177.766632,1192.784912 
	C193.276215,1173.914795 208.616364,1155.374512 223.843033,1136.741333 
	C230.551056,1128.532593 236.955490,1120.076050 243.637573,1111.845703 
	C247.686478,1106.858521 251.855286,1101.947266 256.291260,1097.308960 
	C257.589294,1095.951538 260.013519,1094.916870 261.880859,1094.977905 
	C276.460419,1095.455200 291.030029,1096.236084 306.847473,1096.981812 
	C305.194305,1100.324219 304.370483,1103.054199 302.728577,1105.140381 
	C290.248901,1120.996582 277.504761,1136.644775 265.050629,1152.520752 
	C254.014282,1166.589478 243.344681,1180.945557 232.329727,1195.031372 
	C221.140274,1209.340454 209.725784,1223.473633 198.411240,1237.684937 
	C193.880295,1243.375854 191.876831,1243.236816 188.563614,1236.721191 
	C183.705292,1227.166748 179.086182,1217.489868 174.174759,1207.963257 
	C171.056747,1201.915405 172.361115,1197.116943 177.766632,1192.784912 
z"/>
<path fill="#12085D" opacity="1.000000" stroke="none" 
	d="
M587.563843,1453.565918 
	C579.552429,1463.337280 571.772644,1472.838867 563.052979,1483.488403 
	C557.670166,1472.345459 552.791626,1462.729614 548.457764,1452.874023 
	C547.572693,1450.861450 547.863525,1447.346680 549.103760,1445.558960 
	C553.902100,1438.642578 559.311584,1432.150757 564.477051,1425.488037 
	C567.491089,1421.600220 570.453796,1417.672607 573.474304,1413.789917 
	C585.302063,1398.585938 597.201416,1383.437256 608.963196,1368.182495 
	C619.909729,1353.985352 630.677063,1339.649902 641.609924,1325.442139 
	C644.298157,1321.948608 647.487122,1319.276367 652.506714,1320.021973 
	C663.687073,1321.682983 674.909912,1323.061523 686.079529,1324.787598 
	C687.839539,1325.059570 689.411621,1326.547119 691.253296,1327.574463 
	C656.465881,1369.848022 622.130676,1411.572021 587.563843,1453.565918 
z"/>
<path fill="#11085D" opacity="1.000000" stroke="none" 
	d="
M82.958359,1046.962158 
	C72.316948,1059.088379 61.836540,1070.886108 51.488003,1082.798340 
	C44.240784,1091.140747 37.164860,1099.632080 30.030439,1108.072266 
	C27.243864,1111.368774 15.417589,1114.378906 11.905169,1112.404297 
	C10.972701,1111.880005 10.187435,1110.370972 10.066486,1109.236206 
	C8.630215,1095.760620 7.338894,1082.269531 5.985448,1068.784912 
	C5.889113,1067.825073 5.591812,1066.886475 5.408435,1065.934082 
	C4.615601,1061.816650 4.544484,1058.425659 8.279728,1054.920776 
	C15.163644,1048.461426 21.032900,1040.935913 27.579079,1034.097900 
	C37.227413,1024.019409 47.176746,1014.229309 56.851593,1004.175659 
	C65.850838,994.824280 74.658691,985.288696 84.466629,974.860474 
	C87.547234,982.372131 90.530746,989.090027 93.062576,995.974121 
	C95.701797,1003.150208 97.941277,1010.474976 100.289146,1017.756104 
	C102.465286,1024.504761 101.388298,1026.717896 96.314354,1031.650391 
	C91.558243,1036.273682 87.526329,1041.642090 82.958359,1046.962158 
z"/>
<path fill="#12085D" opacity="1.000000" stroke="none" 
	d="
M391.883118,1335.971558 
	C386.759369,1335.986572 382.119843,1335.986572 376.376801,1335.986572 
	C377.720215,1333.400024 378.562256,1330.990601 380.037048,1329.065796 
	C390.571930,1315.316650 401.162781,1301.609009 411.881958,1288.003174 
	C420.155762,1277.501221 428.696136,1267.209473 437.016541,1256.743774 
	C443.724792,1248.305908 450.268219,1239.737305 456.919983,1231.254272 
	C457.920868,1229.977783 459.114014,1228.852173 461.013489,1226.795898 
	C462.801422,1229.853027 464.748688,1232.149170 465.594360,1234.797119 
	C470.886353,1251.367798 476.054626,1267.980835 481.012451,1284.654419 
	C483.817322,1294.087280 486.077667,1303.680786 488.719879,1313.163940 
	C489.635712,1316.450684 488.522278,1318.197998 485.354462,1318.969971 
	C479.392029,1320.423096 473.471313,1322.067139 467.472900,1323.349487 
	C442.626251,1328.661743 417.903229,1334.741455 391.883118,1335.971558 
z"/>
<path fill="#11085D" opacity="1.000000" stroke="none" 
	d="
M55.009869,923.012329 
	C59.412003,929.656067 63.647297,935.982971 67.771942,942.381226 
	C69.706146,945.381531 69.369431,947.692993 66.543297,950.559082 
	C56.457664,960.786987 46.961346,971.593872 36.951809,981.899719 
	C26.011457,993.164001 14.748836,1004.115234 3.356472,1015.472229 
	C3.234652,1014.227295 3.017030,1013.022522 3.014318,1011.817200 
	C2.988469,1000.333435 3.126044,988.847778 2.958254,977.366394 
	C2.828131,968.462402 2.535687,959.549133 1.907664,950.668884 
	C1.594722,946.244019 3.258698,943.163269 6.209825,940.182007 
	C13.314215,933.005066 20.297199,925.704712 27.201099,918.334167 
	C29.804159,915.555298 32.134823,912.507141 34.445942,909.472229 
	C37.696323,905.204102 41.140095,905.178223 44.347610,909.397400 
	C47.763752,913.890930 51.308884,918.286377 55.009869,923.012329 
z"/>
<path fill="#12085D" opacity="1.000000" stroke="none" 
	d="
M564.762268,1326.839844 
	C577.416443,1325.011475 589.650024,1323.257935 601.883667,1321.504395 
	C602.229187,1322.015991 602.574768,1322.527466 602.920288,1323.039062 
	C580.554321,1353.060181 558.188416,1383.081299 534.801941,1414.472168 
	C532.408936,1405.635010 530.312317,1398.355591 528.476379,1391.010986 
	C525.097595,1377.494385 521.864929,1363.941284 518.594360,1350.397827 
	C518.283325,1349.109863 518.077942,1347.789551 517.919312,1346.472656 
	C516.856262,1337.647339 517.626221,1336.531738 526.253113,1334.739868 
	C538.943542,1332.103760 551.644958,1329.520386 564.762268,1326.839844 
z"/>
<path fill="#140A5F" opacity="1.000000" stroke="none" 
	d="
M170.303513,1108.323730 
	C183.300537,1105.600464 195.897858,1102.997559 208.495178,1100.394653 
	C208.819351,1101.034302 209.143509,1101.673950 209.467682,1102.313599 
	C207.650787,1104.508057 205.835739,1106.704102 204.016739,1108.896973 
	C190.484390,1125.210449 176.951279,1141.523071 163.419205,1157.836670 
	C163.313080,1157.964600 163.226746,1158.109619 163.115829,1158.232910 
	C161.694550,1159.813232 160.270309,1161.390869 158.846863,1162.969238 
	C157.699905,1160.730225 156.109024,1158.608154 155.482361,1156.231934 
	C152.686234,1145.628662 149.966995,1134.996704 147.605759,1124.289917 
	C145.581848,1115.112549 146.684891,1113.827881 155.847321,1111.849976 
	C160.558380,1110.833008 165.219910,1109.586670 170.303513,1108.323730 
z"/>
<path fill="#140A5F" opacity="1.000000" stroke="none" 
	d="
M116.942963,1086.940430 
	C118.153763,1094.544434 117.802147,1095.334229 110.470932,1096.998169 
	C98.331047,1099.753296 86.129982,1102.240356 73.942528,1104.781860 
	C72.847336,1105.010254 71.663246,1104.812256 68.946968,1104.812256 
	C83.320091,1089.508911 96.916191,1075.032959 111.498444,1059.506958 
	C113.539108,1069.721802 115.217209,1078.121704 116.942963,1086.940430 
z"/>
<path fill="#E1E0EA" opacity="1.000000" stroke="none" 
	d="
M455.000000,1343.009766 
	C414.104462,1343.009766 373.708954,1343.009766 333.313416,1343.009766 
	C333.314056,1342.752686 333.314728,1342.495728 333.315399,1342.238647 
	C384.810974,1342.238647 436.306549,1342.238647 487.802124,1342.238647 
	C487.804718,1342.495728 487.807312,1342.752686 487.809937,1343.009766 
	C477.039948,1343.009766 466.269989,1343.009766 455.000000,1343.009766 
z"/>
<path fill="#E1E0EA" opacity="1.000000" stroke="none" 
	d="
M509.028137,1342.015381 
	C509.714539,1342.096191 510.035492,1342.150635 510.333496,1342.264893 
	C510.364136,1342.276611 510.259430,1342.821655 510.215515,1342.821899 
	C506.159119,1342.848999 502.102600,1342.847046 498.039978,1342.006104 
	C501.578705,1342.006104 505.117401,1342.006104 509.028137,1342.015381 
z"/>
<path fill="#150B60" opacity="1.000000" stroke="none" 
	d="
M1132.901611,184.995697 
	C1129.177856,185.872482 1125.841797,186.656433 1122.348755,187.477280 
	C1122.348755,171.409973 1122.348755,155.970825 1122.348755,140.586426 
	C1133.518311,138.816040 1148.976685,148.354843 1151.653442,158.678589 
	C1153.583130,166.120956 1151.394165,172.739548 1145.602661,177.566513 
	C1141.978027,180.587540 1137.425537,182.495514 1132.901611,184.995697 
z"/>
<path fill="#12085D" opacity="1.000000" stroke="none" 
	d="
M1073.479492,149.452179 
	C1080.106079,144.143661 1087.052124,140.642700 1095.821899,140.719528 
	C1095.821899,156.526413 1095.821899,171.957108 1095.821899,187.401886 
	C1085.381470,188.616257 1070.112915,179.670746 1066.523193,170.020584 
	C1063.364624,161.529495 1067.231934,155.234512 1073.479492,149.452179 
z"/>
<path fill="#11075D" opacity="1.000000" stroke="none" 
	d="
M206.003540,614.989502 
	C173.071304,573.733765 157.685150,527.105530 162.459244,474.811981 
	C167.420441,420.469086 193.980621,377.840759 237.018066,345.060486 
	C253.916000,332.189789 272.401428,322.032440 292.062958,314.074036 
	C295.661285,312.617554 297.003937,310.986115 297.001526,306.926270 
	C296.981018,272.267517 297.250763,237.608566 297.431671,202.949692 
	C297.440979,201.171051 297.432861,199.392334 297.432861,198.041840 
	C334.890228,198.041840 371.669586,198.041840 409.053802,198.041840 
	C409.166107,200.425186 409.270752,202.012436 409.311401,203.601303 
	C410.193268,238.080872 411.144196,272.559082 411.834778,307.042511 
	C411.909698,310.782654 413.063782,312.400665 416.412323,313.948486 
	C431.780609,321.052155 447.279236,327.970978 462.147980,336.031769 
	C477.984314,344.617096 491.108459,356.768494 501.828033,371.286041 
	C522.328918,399.050537 538.384216,429.017609 543.098816,463.680817 
	C551.039246,522.061462 536.721436,574.688477 497.943512,619.236511 
	C455.656342,667.815979 400.945709,687.819702 337.239227,683.133545 
	C284.092957,679.224182 240.540573,655.947021 206.003540,614.989502 
M330.071625,668.486023 
	C346.690430,670.565430 363.292206,670.604919 379.880035,668.123657 
	C434.472015,659.957458 476.605072,632.793579 505.845917,585.789978 
	C521.343811,560.877869 527.831421,533.228149 530.970337,504.545227 
	C532.624023,489.434723 533.157776,474.315186 529.947754,459.287048 
	C527.258545,446.697662 520.182739,438.658844 507.229309,435.781067 
	C488.642792,431.651794 469.868042,431.637726 451.048828,432.547516 
	C431.582886,433.488617 412.139557,435.701111 392.679443,435.786835 
	C356.370483,435.946808 320.055695,435.020660 283.744904,434.447601 
	C258.611694,434.050995 233.477081,431.829407 208.360474,434.960541 
	C185.170288,437.851501 174.224106,448.365967 174.092941,471.730469 
	C173.991608,489.781219 175.509094,508.045837 178.406876,525.874023 
	C192.837479,614.656555 262.878510,660.114807 330.071625,668.486023 
z"/>
<path fill="#150B60" opacity="1.000000" stroke="none" 
	d="
M392.000000,181.749954 
	C365.531281,182.123611 339.563354,182.581589 313.593414,182.821289 
	C306.459290,182.887131 299.268646,182.730392 292.194855,181.900726 
	C283.933868,180.931824 277.465149,176.352493 272.518280,170.564453 
	C274.293701,167.634903 275.476318,164.877930 277.386627,162.785263 
	C278.926392,161.098511 281.255005,159.348267 283.389832,159.125900 
	C291.982605,158.230881 300.635590,157.475861 309.267151,157.467010 
	C346.063171,157.429214 382.859650,157.775360 419.655487,157.712097 
	C425.238556,157.702499 429.309814,158.768433 431.441711,164.396347 
	C432.123932,166.197311 433.690033,167.663437 434.760040,169.154938 
	C433.628723,172.157898 432.526672,175.083252 431.158081,178.716049 
	C419.369904,182.930634 405.875427,181.636444 392.000000,181.749954 
z"/>
<path fill="#FDFDFE" opacity="1.000000" stroke="none" 
	d="
M329.631714,668.394287 
	C262.878510,660.114807 192.837479,614.656555 178.406876,525.874023 
	C175.509094,508.045837 173.991608,489.781219 174.092941,471.730469 
	C174.224106,448.365967 185.170288,437.851501 208.360474,434.960541 
	C233.477081,431.829407 258.611694,434.050995 283.744904,434.447601 
	C320.055695,435.020660 356.370483,435.946808 392.679443,435.786835 
	C412.139557,435.701111 431.582886,433.488617 451.048828,432.547516 
	C469.868042,431.637726 488.642792,431.651794 507.229309,435.781067 
	C520.182739,438.658844 527.258545,446.697662 529.947754,459.287048 
	C533.157776,474.315186 532.624023,489.434723 530.970337,504.545227 
	C527.831421,533.228149 521.343811,560.877869 505.845917,585.789978 
	C476.605072,632.793579 434.472015,659.957458 379.880035,668.123657 
	C363.292206,670.604919 346.690430,670.565430 329.631714,668.394287 
M214.641449,542.786865 
	C219.244995,560.366089 227.935486,575.811218 240.382324,588.858276 
	C246.150879,594.904968 253.232193,599.817261 260.180420,604.568054 
	C263.387360,606.760803 267.702820,607.332458 271.515686,608.639099 
	C271.884979,608.125122 272.254272,607.611145 272.623566,607.097168 
	C257.505524,576.715637 237.052658,550.096741 214.721420,524.802673 
	C214.031082,525.041504 213.340744,525.280334 212.650421,525.519165 
	C213.216278,531.012817 213.782150,536.506470 214.641449,542.786865 
M204.140518,507.215271 
	C207.242981,510.113800 210.345459,513.012329 213.491486,515.951538 
	C222.498611,502.340088 219.619736,490.546600 210.008377,479.287689 
	C207.675537,483.138824 205.114334,487.024170 202.904892,491.100159 
	C200.058533,496.351074 200.081772,501.608551 204.140518,507.215271 
z"/>
<path fill="#140A5F" opacity="1.000000" stroke="none" 
	d="
M214.494720,542.393494 
	C213.782150,536.506470 213.216278,531.012817 212.650421,525.519165 
	C213.340744,525.280334 214.031082,525.041504 214.721420,524.802673 
	C237.052658,550.096741 257.505524,576.715637 272.623566,607.097168 
	C272.254272,607.611145 271.884979,608.125122 271.515686,608.639099 
	C267.702820,607.332458 263.387360,606.760803 260.180420,604.568054 
	C253.232193,599.817261 246.150879,594.904968 240.382324,588.858276 
	C227.935486,575.811218 219.244995,560.366089 214.494720,542.393494 
z"/>
<path fill="#150B60" opacity="1.000000" stroke="none" 
	d="
M203.941101,506.901642 
	C200.081772,501.608551 200.058533,496.351074 202.904892,491.100159 
	C205.114334,487.024170 207.675537,483.138824 210.008377,479.287689 
	C219.619736,490.546600 222.498611,502.340088 213.491486,515.951538 
	C210.345459,513.012329 207.242981,510.113800 203.941101,506.901642 
z"/>
</svg>